<?xml version="1.0" encoding="utf-8"?>
<!-- Generator: Adobe Illustrator 16.0.0, SVG Export Plug-In . SVG Version: 6.00 Build 0)  -->
<!DOCTYPE svg PUBLIC "-//W3C//DTD SVG 1.1//EN" "http://www.w3.org/Graphics/SVG/1.1/DTD/svg11.dtd">
<svg version="1.1" id="Layer_1" xmlns="http://www.w3.org/2000/svg" xmlns:xlink="http://www.w3.org/1999/xlink" x="0px" y="0px"
	 width="873.527px" height="273.528px" viewBox="0 0 873.527 273.528" enable-background="new 0 0 873.527 273.528"
	 xml:space="preserve">
<g opacity="0.1">
	<g>
		<g>
			<path fill="#272930" d="M172.666,260.288h-25.809v-25.811h25.809V260.288z M150.421,256.723h18.681v-18.68h-18.681V256.723z"/>
		</g>
	</g>
	<g>
		<g>
			<path fill="#272930" d="M715.665,31.289h-25.808V5.478h25.808V31.289z M693.421,27.724h18.681V9.043h-18.681V27.724z"/>
		</g>
	</g>
	<g>
		<path fill="#272930" d="M143.764,175.959l-25.576-25.575l25.576-25.577l25.577,25.577L143.764,175.959z M123.227,150.384
			l20.537,20.536l20.539-20.536l-20.539-20.537L123.227,150.384z"/>
	</g>
	<g>
		<path fill="#272930" d="M761.764,138.96l-25.576-25.576l25.576-25.577l25.577,25.577L761.764,138.96z M741.227,113.384
			l20.537,20.537l20.539-20.537l-20.539-20.537L741.227,113.384z"/>
	</g>
	<g>
		<g>
			<path fill="#272930" d="M27.764,273.149C12.453,273.149,0,260.694,0,245.383s12.453-27.764,27.764-27.764
				c15.309,0,27.764,12.453,27.764,27.764S43.072,273.149,27.764,273.149z M27.764,221.184c-13.344,0-24.2,10.855-24.2,24.199
				s10.856,24.201,24.2,24.201s24.199-10.857,24.199-24.201S41.107,221.184,27.764,221.184z"/>
		</g>
	</g>
	<g>
		<g>
			<path fill="#272930" d="M845.764,55.15C830.453,55.15,818,42.695,818,27.384s12.453-27.764,27.764-27.764
				c15.309,0,27.764,12.453,27.764,27.764S861.072,55.15,845.764,55.15z M845.764,3.184c-13.344,0-24.2,10.855-24.2,24.2
				c0,13.343,10.856,24.2,24.2,24.2c13.343,0,24.199-10.857,24.199-24.2C869.963,14.04,859.106,3.184,845.764,3.184z"/>
		</g>
	</g>
</g>
</svg>
