<svg xmlns="http://www.w3.org/2000/svg" xmlns:xlink="http://www.w3.org/1999/xlink" version="1.1" x="0px" y="0px" viewBox="0 0 100 125" enable-background="new 0 0 100 100" xml:space="preserve"><path d="M78.938,28.111c0-2.871-2.336-5.207-5.207-5.207h-6.48v-4.274c0-3.032-2.468-5.5-5.5-5.5h-23.5c-3.032,0-5.5,2.468-5.5,5.5  v4.274h-6.48c-2.871,0-5.207,2.336-5.207,5.207c0,2.516,1.793,4.618,4.168,5.101v46.951c0,3.699,3.01,6.709,6.709,6.709h36.126  c3.697,0,6.705-3.01,6.705-6.709V33.211C77.145,32.729,78.938,30.625,78.938,28.111z M35.75,18.629c0-1.379,1.121-2.5,2.5-2.5h23.5  c1.379,0,2.5,1.121,2.5,2.5v4.274h-28.5V18.629z M68.065,83.871H31.939c-2.045,0-3.709-1.664-3.709-3.709V33.317h13.435V75.35  c0,0.828,0.672,1.5,1.5,1.5s1.5-0.672,1.5-1.5V33.317h10.671V75.35c0,0.828,0.672,1.5,1.5,1.5s1.5-0.672,1.5-1.5V33.317h13.435  v46.845C71.771,82.207,70.108,83.871,68.065,83.871z M73.73,30.317H26.27c-1.217,0-2.207-0.989-2.207-2.206s0.99-2.207,2.207-2.207  H73.73c1.217,0,2.207,0.99,2.207,2.207S74.947,30.317,73.73,30.317z"/><text x="0" y="115" fill="#000000" font-size="5px" font-weight="bold" font-family="'Helvetica Neue', Helvetica, Arial-Unicode, Arial, Sans-serif">Created by IconDots</text><text x="0" y="120" fill="#000000" font-size="5px" font-weight="bold" font-family="'Helvetica Neue', Helvetica, Arial-Unicode, Arial, Sans-serif">from the Noun Project</text></svg>