<?xml version="1.0" encoding="utf-8"?>
<!-- Generator: Adobe Illustrator 16.0.0, SVG Export Plug-In . SVG Version: 6.00 Build 0)  -->
<!DOCTYPE svg PUBLIC "-//W3C//DTD SVG 1.1//EN" "http://www.w3.org/Graphics/SVG/1.1/DTD/svg11.dtd">
<svg version="1.1" id="Layer_1" xmlns="http://www.w3.org/2000/svg" xmlns:xlink="http://www.w3.org/1999/xlink" x="0px" y="0px"
	 width="120px" height="120px" viewBox="0 0 120 120" enable-background="new 0 0 120 120" xml:space="preserve">
<g>
	<path fill="#314A7E" d="M120,60.003C120,26.864,93.135,0,60.003,0C26.865,0,0,26.864,0,60.003C0,93.145,26.865,120,60.003,120
		C93.135,120,120,93.145,120,60.003z"/>
	<path fill="#FFFFFF" d="M75.146,28.562c0,3.914,0,7.553,0,11.461c-2.174,0-4.242-0.012-6.312,0
		c-2.549,0.018-3.094,0.58-3.104,3.188c-0.006,1.799,0,3.598,0,5.672c3.176,0,6.229,0,9.649,0
		c-0.387,3.955-0.744,7.605-1.119,11.449c-2.795,0-5.508,0-8.489,0c0,10.459,0,20.725,0,31.119c-4.636,0-9,0-13.56,0
		c0-10.266,0-20.479,0-30.973c-2.086,0-3.984,0-6.023,0c0-3.92,0-7.56,0-11.484c1.881,0,3.779,0,5.912,0
		c0-2.713,0.047-5.145-0.012-7.576c-0.176-7.453,5.121-12.938,12.851-12.861C68.256,28.591,71.566,28.562,75.146,28.562z"/>
</g>
</svg>
