<?xml version="1.0" encoding="utf-8"?>
<!-- Generator: Adobe Illustrator 16.0.0, SVG Export Plug-In . SVG Version: 6.00 Build 0)  -->
<!DOCTYPE svg PUBLIC "-//W3C//DTD SVG 1.1//EN" "http://www.w3.org/Graphics/SVG/1.1/DTD/svg11.dtd">
<svg version="1.1" id="Layer_1" xmlns="http://www.w3.org/2000/svg" xmlns:xlink="http://www.w3.org/1999/xlink" x="0px" y="0px"
	 width="120px" height="120px" viewBox="0 0 120 120" enable-background="new 0 0 120 120" xml:space="preserve">
<g>
	<g>
		<path fill="#DC4335" d="M120,60.574c0-33.139-26.865-60.003-60.003-60.003C26.865,0.571,0,27.435,0,60.574
			c0,33.141,26.865,59.997,59.997,59.997C93.135,120.571,120,93.715,120,60.574z"/>
		<g>
			<path fill="#FFFFFF" d="M63.586,44.572c-2.279,2.15-4.313,4.066-6.322,5.971c-6.627-4.049-12.545-4.172-16.676-0.639
				c-5.777,4.945-6.486,11.262-3.984,16.693c2.402,5.221,8.496,8.25,14.367,7.342c4.617-0.715,8.479-4.271,9.135-8.602
				c-3.914,0-7.811,0-11.883,0c0-2.824,0-5.443,0-8.332c4.131,0,8.197,0,12.264,0.006c2.455,0,4.904,0.029,7.359-0.012
				c1.33-0.023,1.799,0.545,1.869,1.863c0.322,6.369-0.762,12.346-5.063,17.314c-3.199,3.691-7.424,5.883-12.205,6.404
				c-6.006,0.65-11.807,0.006-17.033-3.744c-11.25-8.057-12.076-24.17-3.34-33.34c4.758-4.992,10.477-7.324,17.121-7.143
				C54.633,38.502,59.684,40.195,63.586,44.572z"/>
			<path fill="#FFFFFF" d="M95.396,63.902c-1.986,0-3.885,0-5.994,0c0,2.109,0,4.002,0,6.094c-2.379,0-4.541,0-6.932,0
				c0-1.928,0-3.82,0-6.012c-2.162,0-4.113,0-6.193,0c0-2.408,0-4.523,0-6.861c1.945,0,3.838,0,6.035,0c0-2.156,0-4.107,0-6.205
				c2.408,0,4.518,0,6.932,0c0,1.934,0,3.885,0,6.053c2.186,0,4.084,0,6.152,0C95.396,59.35,95.396,61.518,95.396,63.902z"/>
		</g>
	</g>
</g>
</svg>
