<svg xmlns="http://www.w3.org/2000/svg" xmlns:xlink="http://www.w3.org/1999/xlink" version="1.1" x="0px" y="0px" viewBox="0 0 100 125" enable-background="new 0 0 100 100" xml:space="preserve"><g><path d="M49.998,89.963c-13.359,0-24.229-10.692-24.229-23.835v-37.15c0-0.101,0.012-0.199,0.034-0.293   c0.306-2.915,2.816-5.169,5.808-5.169c1.238,0,2.396,0.387,3.348,1.046v-4.625c0-0.115,0.016-0.227,0.045-0.333   c0.324-2.891,2.825-5.121,5.801-5.121c1.238,0,2.395,0.387,3.348,1.047V13.92c0-0.11,0.015-0.216,0.041-0.318   c0.313-2.903,2.818-5.144,5.805-5.144c2.982,0,5.486,2.239,5.805,5.139c0.027,0.103,0.043,0.211,0.043,0.323v1.609   c0.95-0.659,2.104-1.044,3.338-1.044c2.987,0,5.501,2.245,5.817,5.149c0.024,0.097,0.038,0.199,0.038,0.304v13.96   c0.951-0.659,2.106-1.044,3.344-1.044c2.979,0,5.473,2.225,5.796,5.114c0.033,0.111,0.052,0.228,0.052,0.35v27.811   C74.23,79.271,63.359,89.963,49.998,89.963z M28.27,29.162v36.966c0,11.764,9.747,21.335,21.729,21.335   c11.983,0,21.732-9.571,21.732-21.335V38.566c-0.012-0.055-0.02-0.111-0.022-0.169c-0.109-1.707-1.57-3.043-3.325-3.043   c-1.753,0-3.217,1.339-3.333,3.049c-0.002,0.034-0.006,0.067-0.011,0.1V49c0,0.69-0.56,1.25-1.25,1.25s-1.25-0.56-1.25-1.25V38.317   c0-0.054,0.003-0.106,0.01-0.158c-0.007-0.052-0.01-0.105-0.01-0.159V20.134c-0.006-0.036-0.01-0.072-0.013-0.108   c-0.12-1.706-1.589-3.042-3.343-3.042c-1.745,0-3.207,1.336-3.329,3.042c-0.002,0.027-0.005,0.055-0.009,0.082V49   c0,0.69-0.56,1.25-1.25,1.25s-1.25-0.56-1.25-1.25V14.139c-0.008-0.044-0.014-0.09-0.017-0.136   c-0.114-1.708-1.578-3.045-3.331-3.045c-1.755,0-3.218,1.337-3.331,3.044c-0.003,0.043-0.008,0.085-0.015,0.127V49   c0,0.69-0.56,1.25-1.25,1.25s-1.25-0.56-1.25-1.25V20.108c-0.004-0.027-0.007-0.054-0.009-0.082   c-0.122-1.706-1.589-3.042-3.339-3.042c-1.751,0-3.213,1.334-3.329,3.038c-0.003,0.046-0.009,0.091-0.017,0.136V49   c0,0.69-0.56,1.25-1.25,1.25s-1.25-0.56-1.25-1.25V29.162c-0.005-0.032-0.009-0.065-0.011-0.099   c-0.117-1.709-1.583-3.048-3.337-3.048c-1.752,0-3.215,1.338-3.331,3.047C28.278,29.096,28.274,29.129,28.27,29.162z"/></g><text x="0" y="115" fill="#000000" font-size="5px" font-weight="bold" font-family="'Helvetica Neue', Helvetica, Arial-Unicode, Arial, Sans-serif">Created by Rafa Goicoechea</text><text x="0" y="120" fill="#000000" font-size="5px" font-weight="bold" font-family="'Helvetica Neue', Helvetica, Arial-Unicode, Arial, Sans-serif">from the Noun Project</text></svg>