<svg xmlns="http://www.w3.org/2000/svg" viewBox="0 0 32 21.34"><defs><style>.cls-1{fill:#fff;}</style></defs><title>Card</title><g id="Layer_2" data-name="Layer 2"><g id="Layer_1-2" data-name="Layer 1"><path class="cls-1" d="M30.22,0H1.78A1.78,1.78,0,0,0,0,1.78V19.56a1.78,1.78,0,0,0,1.78,1.78H30.22A1.78,1.78,0,0,0,32,19.56h0V1.78A1.78,1.78,0,0,0,30.22,0Zm-29,4.74H30.82V7.11H1.18ZM30.82,19.56a.59.59,0,0,1-.59.59H1.78a.59.59,0,0,1-.59-.59V8.3H30.82ZM1.18,3.55V1.78a.59.59,0,0,1,.59-.59H30.22a.59.59,0,0,1,.59.59h0V3.56Z"/><rect class="cls-1" x="3.55" y="16.6" width="11.86" height="1.19"/><rect class="cls-1" x="3.55" y="13.04" width="7.12" height="1.19"/><path class="cls-1" d="M24.87,17.79h2.44a1.16,1.16,0,0,0,1.17-1.15h0v-.07a1.16,1.16,0,0,0-1.17-1.15H24.87a1.16,1.16,0,0,0-1.15,1.15v.07A1.16,1.16,0,0,0,24.87,17.79Z"/></g></g></svg>