<svg xmlns="http://www.w3.org/2000/svg" viewBox="0 0 37.68 30"><defs><style>.cls-1{fill:#2d2d54;}</style></defs><title>Cart</title><g id="Layer_2" data-name="Layer 2"><g id="Layer_1-2" data-name="Layer 1"><path class="cls-1" d="M37.53,8.58a.8.8,0,0,0-.65-.34h-29L5.69.58A.8.8,0,0,0,4.92,0H.8a.8.8,0,1,0,0,1.59H4.32l5,17.91a3.38,3.38,0,0,0,.05,6.76h1a2.6,2.6,0,1,0,4.8,0h8.43a2.6,2.6,0,1,0,4.69,0h1.4a.8.8,0,0,0,0-1.59H9.39a1.79,1.79,0,1,1,0-3.58H33a.79.79,0,0,0,.78-.68L37.63,9.31A.8.8,0,0,0,37.53,8.58ZM26,28.41a1,1,0,1,1,1-1A1,1,0,0,1,26,28.41ZM13.82,27.28a1,1,0,1,1-1-1A1,1,0,0,1,13.82,27.28ZM32.38,19.5H11L8.28,9.84H35.76Z"/></g></g></svg>