<svg xmlns="http://www.w3.org/2000/svg" viewBox="0 0 286.31 142.83"><defs><style>.cls-1{opacity:0.1;}.cls-2{fill:none;stroke:#fff;stroke-miterlimit:10;stroke-width:2.38px;}.cls-3{fill:#fff;}</style></defs><title>Empty Cart</title><g id="Layer_2" data-name="Layer 2"><g id="Layer_1-2" data-name="Layer 1"><g class="cls-1"><path class="cls-2" d="M133.27,61.16a25,25,0,1,0,25,25A25,25,0,0,0,133.27,61.16Z"/><path class="cls-3" d="M142.64,84.53h-7.33V77.2a1.63,1.63,0,0,0-3.26,0v7.33H123.9a1.63,1.63,0,1,0,0,3.26H132v7.33a1.63,1.63,0,0,0,3.26,0V87.79h7.33a1.63,1.63,0,0,0,0-3.26Z"/></g><g class="cls-1"><path class="cls-3" d="M10.36,87.28H6.94V83.86A.85.85,0,0,0,6.09,83h-1a.85.85,0,0,0-.85.86v3.42H.85a.86.86,0,0,0-.85.86v1A.85.85,0,0,0,.85,90H4.27v3.42a.85.85,0,0,0,.85.86h1a.85.85,0,0,0,.85-.86V90h3.42a.85.85,0,0,0,.85-.86v-1A.85.85,0,0,0,10.36,87.28Z"/><path class="cls-3" d="M236.46,77.82a5.79,5.79,0,1,0,5.78,5.79A5.79,5.79,0,0,0,236.46,77.82Zm0,9.61a3.81,3.81,0,1,1,3.81-3.81A3.81,3.81,0,0,1,236.46,87.43Z"/><ellipse class="cls-3" cx="35.11" cy="46.33" rx="5.16" ry="5.16"/><path class="cls-3" d="M10.61,123.46a5.79,5.79,0,1,0,5.79,5.79A5.79,5.79,0,0,0,10.61,123.46Zm0,9.61a3.81,3.81,0,1,1,3.81-3.81A3.81,3.81,0,0,1,10.61,133.07Z"/><polygon class="cls-3" points="248.94 133.77 250.41 136.75 253.7 137.23 251.32 139.55 251.88 142.83 248.94 141.28 246 142.83 246.56 139.55 244.18 137.23 247.47 136.75 248.94 133.77"/><ellipse class="cls-3" cx="281.15" cy="34.65" rx="5.16" ry="5.16"/><path class="cls-3" d="M234.92,4.28H231.5V.86a.85.85,0,0,0-.85-.86h-1a.85.85,0,0,0-.85.86V4.28h-3.42a.86.86,0,0,0-.85.86v1a.85.85,0,0,0,.85.86h3.42v3.42a.85.85,0,0,0,.85.86h1a.86.86,0,0,0,.85-.86V7h3.42a.85.85,0,0,0,.85-.86v-1A.85.85,0,0,0,234.92,4.28Z"/><polygon class="cls-3" points="68.56 6.5 70.03 9.48 73.32 9.96 70.94 12.28 71.5 15.56 68.56 14.01 65.62 15.56 66.18 12.28 63.8 9.96 67.09 9.48 68.56 6.5"/><path class="cls-3" d="M198,41.4h-3.42V38a.85.85,0,0,0-.85-.86h-1a.85.85,0,0,0-.85.86V41.4h-3.42a.86.86,0,0,0-.85.86v1a.85.85,0,0,0,.85.85h3.42V47.5a.85.85,0,0,0,.85.86h1a.86.86,0,0,0,.85-.86V44.07H198a.85.85,0,0,0,.85-.85v-1A.85.85,0,0,0,198,41.4Z"/><path class="cls-3" d="M85.35,60.28H81.94V56.86a.85.85,0,0,0-.85-.86h-1a.85.85,0,0,0-.85.86v3.42H75.85a.86.86,0,0,0-.85.86v1a.85.85,0,0,0,.85.85h3.42v3.42a.85.85,0,0,0,.85.86h1a.86.86,0,0,0,.85-.86V63h3.42a.85.85,0,0,0,.85-.85v-1A.85.85,0,0,0,85.35,60.28Z"/><ellipse class="cls-3" cx="152.73" cy="9.56" rx="5.16" ry="5.16"/></g></g></g></svg>