<svg xmlns="http://www.w3.org/2000/svg" viewBox="0 0 24.04 24"><defs><style>.cls-1{fill:#fff;}</style></defs><title>Full screen</title><g id="Layer_2" data-name="Layer 2"><g id="Layer_1-2" data-name="Layer 1"><path class="cls-1" d="M5.39,2.68,7,1A.54.54,0,0,0,7.16.39.56.56,0,0,0,6.61,0h-6A.61.61,0,0,0,0,.63V6.69a.62.62,0,0,0,.35.55.5.5,0,0,0,.24,0A.83.83,0,0,0,1,7.12L2.68,5.47,6.89,9.64a.67.67,0,0,0,.87,0L9.64,7.75a.57.57,0,0,0,0-.83Z"/><path class="cls-1" d="M23.65,16.8a.6.6,0,0,0-.63.12l-1.65,1.65-4.25-4.21a.57.57,0,0,0-.83,0l-1.93,1.89a.57.57,0,0,0,0,.83l4.25,4.25L17,23a.54.54,0,0,0-.12.63.67.67,0,0,0,.55.35h6a.61.61,0,0,0,.59-.59v-6A.67.67,0,0,0,23.65,16.8Z"/><path class="cls-1" d="M7.75,14.36a.57.57,0,0,0-.83,0L2.68,18.61,1,17a.54.54,0,0,0-.63-.12.56.56,0,0,0-.35.55v6A.61.61,0,0,0,.63,24H6.69a.62.62,0,0,0,.55-.35A.6.6,0,0,0,7.12,23L5.47,21.36l4.17-4.25a.57.57,0,0,0,0-.83Z"/><path class="cls-1" d="M23.41,0H17.35a.62.62,0,0,0-.55.35.62.62,0,0,0,.12.63l1.65,1.65L14.36,6.89a.57.57,0,0,0,0,.83L16.25,9.6a.67.67,0,0,0,.87,0l4.25-4.25L23,7a.59.59,0,0,0,.43.16.5.5,0,0,0,.24,0A.56.56,0,0,0,24,6.57v-6A.67.67,0,0,0,23.41,0Z"/></g></g></svg>