<svg xmlns="http://www.w3.org/2000/svg" viewBox="0 0 101.1 56.57"><defs><style>.cls-1{fill:#4ec65f;}.cls-2{fill:#7598d1;}</style></defs><title>icn_correctAnswer</title><g id="Layer_2" data-name="Layer 2"><g id="Layer_1-2" data-name="Layer 1"><path class="cls-1" d="M57.34,45.14a15.38,15.38,0,1,1-.11-15.24l3.4-1.2a18.95,18.95,0,1,0,.25,17.36Z"/><path class="cls-1" d="M43.92,45.63A8,8,0,1,1,50,32.45l3.5-1.24a11.58,11.58,0,1,0-.07,12.93l-3.78-1A8,8,0,0,1,43.92,45.63Z"/><circle class="cls-1" cx="43.92" cy="37.62" r="3.15"/><path class="cls-1" d="M65.84,36.3c-.57-2.22-2.72-4.93-7.87-4.93a10,10,0,0,0-7.51,3c-1.22,1.07-2.15,1.86-4.08,1.86H43.75v2.86h2.65c1.93,0,2.79.79,4.08,1.86a10,10,0,0,0,7.51,3c5.22,0,7.29-2.72,7.87-4.93L75,44.38V31ZM58,41.16a7.43,7.43,0,0,1-5.65-2.29c-.43-.36-.93-.79-1.43-1.14.5-.36,1-.79,1.43-1.14A7.43,7.43,0,0,1,58,34.29c5,0,5.22,3.15,5.22,3.43S63.2,41.16,58,41.16Zm14.16-1.72-3-1.72,3-1.72Z"/><rect class="cls-1" x="78.57" y="36.3" width="4.29" height="2.86"/><rect class="cls-1" x="87.51" y="36.3" width="4.65" height="2.86"/><rect class="cls-1" x="96.81" y="36.3" width="4.29" height="2.86"/><path class="cls-2" d="M3.7,44.4a3.7,3.7,0,0,0,0-7.4,3.7,3.7,0,0,0,0,7.4Zm0-5.9a2.2,2.2,0,0,1,0,4.4,2.22,2.22,0,0,1-2.2-2.2A2.16,2.16,0,0,1,3.7,38.5Z"/><path class="cls-2" d="M4.7,17.1a.73.73,0,0,0,1,0,.67.67,0,0,0,0-1L4.1,14.5a.67.67,0,0,0-1,0c-.2.3-.3.8,0,1Z"/><path class="cls-2" d="M9.8,22.2a.72.72,0,0,0,1,0,.67.67,0,0,0,0-1L9.2,19.6a.71.71,0,0,0-1,1Z"/><path class="cls-2" d="M3.6,22.4a.76.76,0,0,0,.5-.2l1.6-1.6a.67.67,0,0,0,0-1,.67.67,0,0,0-1,0L3.1,21.2a.67.67,0,0,0,0,1C3.2,22.4,3.4,22.4,3.6,22.4Z"/><path class="cls-2" d="M8.7,17.3a.76.76,0,0,0,.5-.2l1.6-1.6a.71.71,0,0,0-1-1L8.2,16.1a.67.67,0,0,0,0,1A1.69,1.69,0,0,0,8.7,17.3Z"/><path class="cls-2" d="M51.7,7.4a3.76,3.76,0,0,0,3.7-3.7,3.7,3.7,0,1,0-7.4,0A3.76,3.76,0,0,0,51.7,7.4Zm0-5.9a2.22,2.22,0,0,1,2.2,2.2,2.2,2.2,0,1,1-4.4,0A2.16,2.16,0,0,1,51.7,1.5Z"/><path class="cls-2" d="M79.7,14.1a.73.73,0,0,0,1,0,.67.67,0,0,0,0-1l-1.6-1.6a.67.67,0,0,0-1,0c-.2.3-.3.8,0,1Z"/><path class="cls-2" d="M84.8,19.2a.72.72,0,0,0,1,0,.67.67,0,0,0,0-1l-1.6-1.6a.71.71,0,0,0-1,1Z"/><path class="cls-2" d="M78.6,19.4a.76.76,0,0,0,.5-.2l1.6-1.6a.71.71,0,0,0-1-1l-1.6,1.6a.67.67,0,0,0,0,1C78.2,19.4,78.4,19.4,78.6,19.4Z"/><path class="cls-2" d="M83.7,14.3a.76.76,0,0,0,.5-.2l1.6-1.6a.71.71,0,0,0-1-1l-1.6,1.6a.67.67,0,0,0,0,1A1.69,1.69,0,0,0,83.7,14.3Z"/></g></g></svg>