<svg xmlns="http://www.w3.org/2000/svg" viewBox="0 0 146 146"><defs><style>.cls-1{fill:#fff;}.cls-2{fill:#f06;}.cls-3,.cls-4,.cls-5{fill:none;stroke:#fff;stroke-miterlimit:10;}.cls-3,.cls-4{stroke-width:1.88px;}.cls-4,.cls-5{stroke-linecap:round;}.cls-5{stroke-width:1.5px;}</style></defs><title>icn_It’s all about learning</title><g id="Layer_2" data-name="Layer 2"><g id="Layer_3" data-name="Layer 3"><circle class="cls-1" cx="73" cy="73" r="73"/><circle class="cls-2" cx="73" cy="73" r="68"/><g id="Group_168" data-name="Group 168"><path id="Path_121" data-name="Path 121" class="cls-3" d="M71.12,78c0,3.48-3.4,6.27-6.89,6.27a6.29,6.29,0,0,1-6.3-6.28v0a5.67,5.67,0,0,1,0-.68,6.18,6.18,0,0,1-3.4,1,6.3,6.3,0,0,1-3.78-11.33,5.94,5.94,0,0,1-1,.08,6.3,6.3,0,0,1-.86-12.54A6,6,0,0,1,52.64,44a5.72,5.72,0,0,1-.46-2.25,6,6,0,0,1,6-6,6.28,6.28,0,0,1,2.36.48A5.44,5.44,0,0,1,71.15,37.9v40Z"/><path id="Path_122" data-name="Path 122" class="cls-4" d="M56.15,51.41a16.91,16.91,0,0,0,4.13,5.12c2.41,1.9,5.79,2.89,9.7-.29"/><path id="Path_123" data-name="Path 123" class="cls-4" d="M63.06,41.63s7.18,8.44-2.79,14.9"/><path id="Path_124" data-name="Path 124" class="cls-4" d="M49.48,60s5.14,5.68,11.44,2.49c0,0-3.19,5.28.08,8.71"/><path id="Path_125" data-name="Path 125" class="cls-4" d="M58,77.25s.27-9.43,9-6"/><path id="Path_126" data-name="Path 126" class="cls-3" d="M74.79,38.74c0-3.48,3.4-6.27,6.88-6.27A6.29,6.29,0,0,1,88,38.74s0,0,0,0a5.6,5.6,0,0,1,0,.67,6.18,6.18,0,0,1,3.4-1,6.3,6.3,0,0,1,3.78,11.33,5.94,5.94,0,0,1,1-.08A6.3,6.3,0,0,1,97,62.24a6,6,0,0,1-3.7,10.45,5.72,5.72,0,0,1,.46,2.25,6,6,0,0,1-6,6,6.28,6.28,0,0,1-2.36-.48,5.44,5.44,0,0,1-10.63-1.64v-40Z"/><path id="Path_127" data-name="Path 127" class="cls-4" d="M89.77,65.28a16.91,16.91,0,0,0-4.13-5.12c-2.41-1.9-5.79-2.89-9.7.29"/><path id="Path_128" data-name="Path 128" class="cls-4" d="M82.86,75.07s-7.18-8.44,2.79-14.9"/><path id="Path_129" data-name="Path 129" class="cls-4" d="M96.44,56.71S91.3,51,85,54.22c0,0,3.19-5.28-.08-8.71"/><path id="Path_130" data-name="Path 130" class="cls-4" d="M87.92,39.43s-.27,9.43-9,6"/><path id="Path_131" data-name="Path 131" class="cls-5" d="M61.86,98.48H85.38v9.81H82.16v2.81H79.35s-5.52,9.27-10.74,0H65v-2.68H61.91Z"/><line id="Line_3" data-name="Line 3" class="cls-4" x1="43.99" y1="74.18" x2="34.18" y2="78.49"/><line id="Line_4" data-name="Line 4" class="cls-4" x1="39.83" y1="59.79" x2="29.06" y2="59.79"/><line id="Line_5" data-name="Line 5" class="cls-4" x1="44.52" y1="44.74" x2="35.65" y2="40.56"/><line id="Line_6" data-name="Line 6" class="cls-4" x1="101.99" y1="74.18" x2="111.82" y2="78.49"/><line id="Line_7" data-name="Line 7" class="cls-4" x1="106.17" y1="59.79" x2="116.94" y2="59.79"/><line id="Line_8" data-name="Line 8" class="cls-4" x1="101.45" y1="44.74" x2="110.35" y2="40.56"/><path id="Path_132" data-name="Path 132" class="cls-1" d="M54.19,81.12S60.27,87.63,61.93,95H85.27s1.61-8.36,7.23-13.74H90.3s-.91,3.51-5.41,5.41c0,0-2.14,4.8-2.2,5.28H64.29a41.78,41.78,0,0,0-2-5s-5-1.42-6.62-5.89A7.29,7.29,0,0,0,54.19,81.12Z"/><path id="Path_133" data-name="Path 133" class="cls-1" d="M70.11,31a19.13,19.13,0,0,1,6.3,0,10.51,10.51,0,0,0-2.6,2.68.53.53,0,0,1-.48.3h-.05a.6.6,0,0,1-.48-.27A10.47,10.47,0,0,0,70.11,31Z"/></g></g></g></svg>