<svg xmlns="http://www.w3.org/2000/svg" viewBox="0 0 278.59 232.43"><defs><style>.cls-1{fill:#272930;}.cls-2{fill:#2b6b9b;}.cls-3{fill:#236698;}.cls-4{fill:#efdf23;}.cls-5{fill:#f70555;}</style></defs><title>icn_New Teaching</title><g id="Layer_2" data-name="Layer 2"><g id="Layer_3" data-name="Layer 3"><g id="Group_167" data-name="Group 167"><path id="Path_89" data-name="Path 89" class="cls-1" d="M204.64,27.85h42.76a1.54,1.54,0,0,0,0-3.07H204.64a1.5,1.5,0,0,0-1.54,1.46s0,0,0,.07A1.65,1.65,0,0,0,204.64,27.85Z"/><path id="Path_90" data-name="Path 90" class="cls-1" d="M238.84,36H213.19a1.54,1.54,0,0,0,0,3.07h25.65a1.5,1.5,0,0,0,1.54-1.46s0,0,0-.07C240.59,36.62,239.72,36,238.84,36Z"/><path id="Path_92" data-name="Path 92" class="cls-2" d="M268.44,186.82H9a2.7,2.7,0,0,0-2.41,1.54,3.25,3.25,0,0,0,0,2.85l2.63,4.17A24.49,24.49,0,0,0,30.1,207.21H247.61a24.49,24.49,0,0,0,20.83-11.84l2.63-4.17a2.68,2.68,0,0,0,0-2.85A3.71,3.71,0,0,0,268.44,186.82Zm-2.85,7a21.17,21.17,0,0,1-18.2,10.31H29.88a21.44,21.44,0,0,1-18.2-10.31l-2.19-3.73H267.56Z"/><path id="Path_93" data-name="Path 93" class="cls-1" d="M5.54,84.2a1.5,1.5,0,0,0,1.54-1.46s0,0,0-.07V61.4a1.5,1.5,0,0,0-1.46-1.53H5.54A1.5,1.5,0,0,0,4,61.32s0,0,0,.07V82.66A1.5,1.5,0,0,0,5.47,84.2Z"/><path id="Path_94" data-name="Path 94" class="cls-1" d="M5.54,101.74a1.5,1.5,0,0,0,1.53-1.46s0,0,0-.07V92.53A1.5,1.5,0,0,0,5.61,91H5.54A1.5,1.5,0,0,0,4,92.46s0,0,0,.07v7.67a1.5,1.5,0,0,0,1.46,1.53Z"/><path id="Path_95" data-name="Path 95" class="cls-1" d="M262.3,97.58v21.26a1.54,1.54,0,0,0,3.07,0V97.58a1.54,1.54,0,0,0-3.07,0Z"/><path id="Path_96" data-name="Path 96" class="cls-1" d="M263.84,127.18a1.5,1.5,0,0,0-1.54,1.46s0,0,0,.07v7.67a1.54,1.54,0,0,0,3.07,0v-7.67C265.59,128.05,264.72,127.18,263.84,127.18Z"/><path id="Path_97" data-name="Path 97" class="cls-2" d="M74,216.2a8.11,8.11,0,1,0,8.11,8.11h0A8.24,8.24,0,0,0,74,216.2Zm0,13.16a4.82,4.82,0,1,1,4.82-4.82h0A4.87,4.87,0,0,1,74,229.36Z"/><path id="Path_98" data-name="Path 98" class="cls-1" d="M164.73,28.29a8.24,8.24,0,0,0,8.11-8.11,8.11,8.11,0,1,0-16.23,0h0A8.24,8.24,0,0,0,164.73,28.29Zm0-12.94a4.82,4.82,0,1,1-4.82,4.82h0a4.73,4.73,0,0,1,4.63-4.82Z"/><path id="Path_91" data-name="Path 91" class="cls-3" d="M37.55,42.1a8.33,8.33,0,0,0-8.33,8.33h0V178a1.5,1.5,0,0,0,1.46,1.54h216a1.5,1.5,0,0,0,1.54-1.46s0,0,0-.07V54.16H257a6.46,6.46,0,0,0,6.58-6.34q0-.12,0-.24v-32A6.46,6.46,0,0,0,257.28,9H195a6.46,6.46,0,0,0-6.58,6.34q0,.12,0,.24V42.1ZM245,176.51H32.29V50.43a5.34,5.34,0,0,1,5.26-5.26H188.41v2.19a6.46,6.46,0,0,0,6.34,6.58h4v7a2.22,2.22,0,0,0,.88,1.53c.22,0,.44.22.66.22.44,0,.66-.22,1.1-.44l10.74-8.33H245.2V176.51ZM191.7,15.57A3.37,3.37,0,0,1,195,12.28H257a3.37,3.37,0,0,1,3.29,3.29v32A3.37,3.37,0,0,1,257,50.87H211.43c-.44,0-.66.22-1.1.44l-8.55,6.58V52.62a1.5,1.5,0,0,0-1.46-1.53H195a3.37,3.37,0,0,1-3.29-3.29Z"/><path id="Path_99" data-name="Path 99" class="cls-4" d="M30.1,10.53a1.5,1.5,0,0,0,1.46,1.53h26.6A1.5,1.5,0,0,0,59.7,10.6s0,0,0-.07A1.5,1.5,0,0,0,58.23,9H31.85A1.7,1.7,0,0,0,30.1,10.53Z"/><path id="Path_100" data-name="Path 100" class="cls-4" d="M14.53,12.28h8.55a1.5,1.5,0,0,0,1.53-1.46s0,0,0-.07a1.5,1.5,0,0,0-1.46-1.54H14.53A1.5,1.5,0,0,0,13,10.67s0,0,0,.07a1.5,1.5,0,0,0,1.46,1.53Z"/><path id="Path_101" data-name="Path 101" class="cls-4" d="M14.53,3.07H32.95a1.5,1.5,0,0,0,1.53-1.46s0,0,0-.07A1.5,1.5,0,0,0,33,0H14.53A1.5,1.5,0,0,0,13,1.46s0,0,0,.07a1.5,1.5,0,0,0,1.46,1.53Z"/><path id="Path_102" data-name="Path 102" class="cls-4" d="M40.84,3.07h5.92A1.5,1.5,0,0,0,48.3,1.61s0,0,0-.07A1.5,1.5,0,0,0,46.83,0h-6a1.5,1.5,0,0,0-1.53,1.46s0,0,0,.07a1.5,1.5,0,0,0,1.46,1.53Z"/><path id="Path_103" data-name="Path 103" class="cls-4" d="M192.79,220.8a1.5,1.5,0,0,0-1.46-1.53h-26.6a1.54,1.54,0,0,0,0,3.07h26.53C192.14,222.56,192.79,221.9,192.79,220.8Z"/><path id="Path_104" data-name="Path 104" class="cls-4" d="M208.36,219.27h-8.55a1.54,1.54,0,1,0,0,3.07h8.55a1.5,1.5,0,0,0,1.54-1.46s0,0,0-.07C210.12,219.93,209.24,219.27,208.36,219.27Z"/><path id="Path_105" data-name="Path 105" class="cls-4" d="M208.36,228.26H189.94a1.54,1.54,0,0,0,0,3.07h18.42a1.5,1.5,0,0,0,1.54-1.46s0,0,0-.07C210.12,229.14,209.24,228.26,208.36,228.26Z"/><path id="Path_106" data-name="Path 106" class="cls-4" d="M182.05,228.26h-5.92a1.54,1.54,0,0,0,0,3.07h5.92a1.5,1.5,0,0,0,1.54-1.46s0,0,0-.07A1.65,1.65,0,0,0,182.05,228.26Z"/><path id="Path_107" data-name="Path 107" class="cls-2" d="M263.4,211.16a1.55,1.55,0,1,0-2.19,2.19h0l3.51,3.51a1.59,1.59,0,0,0,2.19,0,1.46,1.46,0,0,0,.13-2.06l-.13-.13Z"/><path id="Path_108" data-name="Path 108" class="cls-2" d="M274.58,222.56a1.55,1.55,0,1,0-2.19,2.19h0l3.51,3.51a1.59,1.59,0,0,0,2.19,0,1.46,1.46,0,0,0,.13-2.06l-.13-.13Z"/><path id="Path_109" data-name="Path 109" class="cls-2" d="M264.5,222.56,261,226.07a1.46,1.46,0,0,0-.13,2.06l.13.13a1.59,1.59,0,0,0,2.19,0l3.51-3.51a1.55,1.55,0,1,0-2.19-2.19Z"/><path id="Path_110" data-name="Path 110" class="cls-2" d="M273.48,217.51a1.68,1.68,0,0,0,1.1-.44l3.51-3.51a1.55,1.55,0,1,0-2.19-2.19l-3.51,3.51a1.46,1.46,0,0,0-.13,2.06l.13.13A1.68,1.68,0,0,0,273.48,217.51Z"/><path id="Path_111" data-name="Path 111" class="cls-1" d="M116.49,7.89a1.59,1.59,0,0,0,2.19,0,1.46,1.46,0,0,0,.13-2.06l-.13-.13-3.51-3.51a1.46,1.46,0,0,0-2.06-.13l-.13.13c-.44.66-.66,1.75,0,2.19Z"/><path id="Path_112" data-name="Path 112" class="cls-1" d="M127.67,19.08a1.59,1.59,0,0,0,2.19,0A1.46,1.46,0,0,0,130,17l-.13-.13-3.51-3.51a1.46,1.46,0,0,0-2.06-.13l-.13.13a1.46,1.46,0,0,0-.13,2.06l.13.13Z"/><path id="Path_113" data-name="Path 113" class="cls-1" d="M114.08,19.52a1.67,1.67,0,0,0,1.1-.44l3.51-3.51a1.46,1.46,0,0,0,.13-2.06l-.13-.13a1.46,1.46,0,0,0-2.06-.13l-.13.13L113,16.88a1.46,1.46,0,0,0-.13,2.06l.13.13C113.2,19.52,113.64,19.52,114.08,19.52Z"/><path id="Path_114" data-name="Path 114" class="cls-1" d="M125.26,8.33a1.67,1.67,0,0,0,1.1-.44l3.51-3.51A1.46,1.46,0,0,0,130,2.32l-.13-.13a1.46,1.46,0,0,0-2.06-.13l-.13.13L124.16,5.7A1.46,1.46,0,0,0,124,7.76l.13.13A3.7,3.7,0,0,0,125.26,8.33Z"/><path id="Path_115" data-name="Path 115" class="cls-1" d="M4,149.1a1.68,1.68,0,0,0,1.1.44,1.68,1.68,0,0,0,1.1-.44A1.46,1.46,0,0,0,6.34,147l-.13-.13L2.69,143.4a1.46,1.46,0,0,0-2.06-.13l-.13.13a1.46,1.46,0,0,0-.13,2.06l.13.13Z"/><path id="Path_116" data-name="Path 116" class="cls-1" d="M15.19,160.5a1.59,1.59,0,0,0,2.19,0,1.46,1.46,0,0,0,.13-2.06l-.13-.13-3.51-3.51a1.46,1.46,0,0,0-2.06-.13l-.13.13c-.44.66-.66,1.75,0,2.19Z"/><path id="Path_117" data-name="Path 117" class="cls-1" d="M6.2,154.8a1.46,1.46,0,0,0-2.06-.13L4,154.8.5,158.31a1.46,1.46,0,0,0-.13,2.06l.13.13a1.68,1.68,0,0,0,1.1.44,1.68,1.68,0,0,0,1.1-.44L6.2,157a1.46,1.46,0,0,0,.13-2.06Z"/><path id="Path_118" data-name="Path 118" class="cls-1" d="M13,149.76a1.68,1.68,0,0,0,1.1-.44l3.51-3.51a1.46,1.46,0,0,0,.13-2.06l-.13-.13a1.46,1.46,0,0,0-2.06-.13l-.13.13-3.51,3.29a1.46,1.46,0,0,0-.13,2.06l.13.13A1.21,1.21,0,0,0,13,149.76Z"/><path id="Path_119" data-name="Path 119" class="cls-5" d="M194.77,87.71,143.68,67.32a13.38,13.38,0,0,0-10.09,0L82.5,87.71a4.16,4.16,0,0,0-2.85,3.73,4,4,0,0,0,2.85,3.73l18.64,7.45V130.9a1.5,1.5,0,0,0,1.46,1.54h.07c.22,0,20.61.44,34.64,16.44.22.44.66.44,1.32.44a3.12,3.12,0,0,0,1.32-.44c14-16,34.42-16.44,34.64-16.44a1.5,1.5,0,0,0,1.54-1.46s0,0,0-.07V102.62l9.43-3.73v37.28a6.15,6.15,0,0,0-5.26,6.14v11.62a1.5,1.5,0,0,0,1.46,1.54h10.81a1.5,1.5,0,0,0,1.54-1.46s0,0,0-.07V142.31a6.35,6.35,0,0,0-5.26-6.14V97.58l5.92-2.41a4.16,4.16,0,0,0,2.85-3.73A4,4,0,0,0,194.77,87.71ZM191,142.31v10.09h-7.46V142.31a3,3,0,0,1,2.93-3.07H188a3.14,3.14,0,0,1,3.07,3.07Zm-18.2-12.94c-5,.44-21.49,2.63-34.21,16a53.31,53.31,0,0,0-34.21-16V103.93l29.16,11.62a14.94,14.94,0,0,0,10.09,0l29.16-11.62Zm20.83-37.06L174.15,100a.22.22,0,0,0-.22.21h0l-31.35,12.5a11.52,11.52,0,0,1-7.67,0l-31.36-12.5a.22.22,0,0,1-.22-.21h0L83.82,92.31c-.44-.22-.88-.44-.88-.88,0-.22.22-.66.88-.88l51.09-20.17a11.47,11.47,0,0,1,3.95-.66,12.42,12.42,0,0,1,3.95.66l51.09,20.39c.44.22.88.44.88.88-.44,0-.66.44-1.1.66Z"/></g></g></g></svg>