<?xml version="1.0" encoding="utf-8"?>
<!-- Generator: Adobe Illustrator 21.0.0, SVG Export Plug-In . SVG Version: 6.00 Build 0)  -->
<svg version="1.1" id="Layer_1" xmlns="http://www.w3.org/2000/svg" xmlns:xlink="http://www.w3.org/1999/xlink" x="0px" y="0px"
	 viewBox="0 0 24 20.7" style="enable-background:new 0 0 24 20.7;" xml:space="preserve">
<style type="text/css">
	.st0{fill:#FFFFFF;}
	.st1{fill:none;stroke:#FFFFFF;stroke-width:1.5604;stroke-linecap:round;stroke-linejoin:round;stroke-miterlimit:10;}
</style>
<g>
	<g>
		<path class="st0" d="M10.6,1C10.4,1,10.1,1,9.9,1.2L5.2,6.4H1.1C0.7,6.4,0.5,6.6,0.5,7v6.8c0,0.3,0.3,0.6,0.6,0.6h3.6l0.5,0.5
			L6,14l-0.7-0.6c-0.1-0.1-0.3-0.2-0.4-0.2H1.7V7.6h3.8c0.2,0,0.3-0.1,0.4-0.2l3.9-4.2v7L11,9V1.6C11,1.4,10.8,1.1,10.6,1z M9.8,14
			v3.7l-1.9-1.8l-0.8,0.8l2.9,2.8c0.1,0.1,0.3,0.2,0.4,0.2c0.1,0,0.1,0,0.2-0.1c0.2-0.1,0.4-0.3,0.4-0.5v-6.3L9.8,14z"/>
		<path class="st0" d="M20.5,10.3c0,2.3-0.7,4.6-2.2,6.4C18.2,16.9,18,17,17.9,17c-0.1,0-0.2,0-0.4-0.1c-0.2-0.2-0.3-0.6-0.1-0.8
			c1.3-1.6,2-3.6,2-5.7c0-1.7-0.4-3.3-1.3-4.7L19,4.8C20,6.5,20.6,8.4,20.5,10.3z"/>
		<path class="st0" d="M17.2,10.3c0,1.8-0.6,3.5-1.7,4.9c-0.1,0.2-0.3,0.2-0.5,0.2c-0.1,0-0.2,0-0.4-0.1c-0.3-0.2-0.3-0.6-0.1-0.8
			c0.9-1.2,1.4-2.6,1.4-4.2c0-0.8-0.1-1.5-0.3-2.2l0.9-0.9C16.9,8.2,17.2,9.3,17.2,10.3z"/>
		<path class="st0" d="M24,10.4c0,2.9-0.9,5.6-2.7,7.8c-0.1,0.2-0.3,0.2-0.5,0.2c-0.1,0-0.2,0-0.4-0.1c-0.2-0.2-0.3-0.6-0.1-0.8
			c1.6-2,2.5-4.5,2.5-7.1c0-2.6-0.8-5-2.4-7l0.8-0.8C23,4.7,24,7.5,24,10.4z"/>
	</g>
	<g>
		<line class="st1" x1="0.9" y1="19.7" x2="19.6" y2="1"/>
	</g>
</g>
</svg>
