<svg xmlns="http://www.w3.org/2000/svg" viewBox="0 0 63.5 63.5"><defs><style>.cls-1,.cls-4{fill:#fff;}.cls-1{stroke:#c5d1d8;stroke-miterlimit:10;stroke-width:1.5px;}.cls-2{fill:#49498c;}.cls-3{fill:#29b473;}.cls-3,.cls-4{fill-rule:evenodd;}</style></defs><title>icn_Overview</title><g id="Layer_2" data-name="Layer 2"><g id="Layer_3" data-name="Layer 3"><circle class="cls-1" cx="31.75" cy="31.75" r="31"/><circle class="cls-2" cx="31.75" cy="32.1" r="25.83"/><path class="cls-3" d="M33.54,33.48l.36-.05a13.59,13.59,0,0,0,2.53-.56,6.33,6.33,0,0,0,3.16-2.34,7.85,7.85,0,0,0,1.17-2.65c0-.1,0-.2.18-.22a4.44,4.44,0,0,0,3.6-4.94,4.32,4.32,0,1,0-8.34,2.12,4.25,4.25,0,0,0,2.11,2.38c.08,0,.15.06.11.19A5.28,5.28,0,0,1,37,29.75a5.48,5.48,0,0,1-3,1.35l-.84.13ZM24.73,36.6a4.6,4.6,0,0,1,1-1.37,5.3,5.3,0,0,1,3.06-1.38l.9-.14-.35-2.3-.17,0-1.43.27a7.41,7.41,0,0,0-3.09,1.23,6.4,6.4,0,0,0-2.38,3.39.32.32,0,0,1-.26.24,3.94,3.94,0,0,0-2,1.19A4.39,4.39,0,0,0,18.91,41a4.32,4.32,0,0,0,4.7,4,4.33,4.33,0,0,0,2.07-7.85C25.39,36.95,25.06,36.79,24.73,36.6Zm.6-5V27.1l.14,0a3.94,3.94,0,0,0,2.79-4.37,3.87,3.87,0,0,0-5.41-3,3.9,3.9,0,0,0-.05,7.11.34.34,0,0,1,.23.36c0,1.4,0,2.8,0,4.21v.21Zm12.44,1.75v.23c0,1.07,0,2.14,0,3.2a.19.19,0,0,1-.15.21,4.74,4.74,0,0,0-.83.38A3.8,3.8,0,0,0,35,41.19a3.91,3.91,0,0,0,4.26,3.4,4.1,4.1,0,0,0,3.49-3.47A4,4,0,0,0,40.24,37a.21.21,0,0,1-.17-.24c0-1.08,0-2.16,0-3.24,0-.07,0-.13,0-.2Z"/><path class="cls-4" d="M33.54,33.48l-.4-2.25L34,31.1a5.48,5.48,0,0,0,3-1.35,5.28,5.28,0,0,0,1.43-2.35c0-.13,0-.15-.11-.19a4.25,4.25,0,0,1-2.11-2.38,4.32,4.32,0,1,1,8.34-2.12,4.44,4.44,0,0,1-3.6,4.94c-.15,0-.15.12-.18.22a7.85,7.85,0,0,1-1.17,2.65,6.33,6.33,0,0,1-3.16,2.34,13.59,13.59,0,0,1-2.53.56Z"/><path class="cls-4" d="M24.75,36.61c.33.19.66.36,1,.57a4.34,4.34,0,0,1,1.58,5.12,4.29,4.29,0,0,1-3.66,2.87,4.35,4.35,0,0,1-4.72-4.08A4.51,4.51,0,0,1,20,37.78a4,4,0,0,1,2-1.21.32.32,0,0,0,.26-.24,6.52,6.52,0,0,1,2.39-3.45,7.37,7.37,0,0,1,3.1-1.25l1.44-.27.17,0,.35,2.34-.9.14a5.29,5.29,0,0,0-3.07,1.4A4.69,4.69,0,0,0,24.75,36.61Z"/><path class="cls-4" d="M25.33,31.62H23v-.21c0-1.4,0-2.79,0-4.19a.34.34,0,0,0-.23-.36,3.87,3.87,0,0,1,.05-7.08,3.88,3.88,0,0,1,5.41,2.94,3.92,3.92,0,0,1-2.79,4.36l-.14,0Z"/><path class="cls-4" d="M37.83,33.37h2.36c0,.07,0,.14,0,.21,0,1.1,0,2.2,0,3.3a.21.21,0,0,0,.17.24,4.06,4.06,0,0,1,2.58,4.14,4.19,4.19,0,0,1-3.57,3.54A4,4,0,0,1,35,41.33a3.86,3.86,0,0,1,1.82-3.87,4.87,4.87,0,0,1,.85-.39.19.19,0,0,0,.15-.22c0-1.09,0-2.18,0-3.27Z"/></g></g></svg>