<svg xmlns="http://www.w3.org/2000/svg" viewBox="0 0 16.7 18.71"><defs><style>.cls-1{fill:#fff;}</style></defs><title>icn_volume_low</title><g id="Layer_2" data-name="Layer 2"><g id="Layer_1-2" data-name="Layer 1"><path class="cls-1" d="M9.48,18.54a.59.59,0,0,0,.42.18.7.7,0,0,0,.24-.06.59.59,0,0,0,.36-.54V.61A.61.61,0,0,0,10.11,0a.6.6,0,0,0-.66.15L4.71,5.37H.6A.6.6,0,0,0,0,6v6.82a.6.6,0,0,0,.6.6H4.17Zm-8.29-12H4.95a.61.61,0,0,0,.45-.18L9.3,2.16V16.72L4.83,12.34a.59.59,0,0,0-.42-.18H1.19Z"/><path class="cls-1" d="M14.19,14.34a.57.57,0,0,0,.36.12.62.62,0,0,0,.48-.24A7.82,7.82,0,0,0,16.7,9.33,8,8,0,0,0,15,4.39a.59.59,0,0,0-.92.74,6.66,6.66,0,0,1,1.46,4.2,6.85,6.85,0,0,1-1.43,4.17A.61.61,0,0,0,14.19,14.34Z"/></g></g></svg>