<svg xmlns="http://www.w3.org/2000/svg" viewBox="0 0 283 151"><defs><style>.cls-1{fill:#fff;}</style></defs><title>icn_getStarted</title><g id="Layer_2" data-name="Layer 2"><g id="Layer_1-2" data-name="Layer 1"><rect class="cls-1" x="58.5" width="167" height="9" rx="4.5" ry="4.5"/><rect class="cls-1" x="58.5" y="16" width="167" height="9" rx="4.5" ry="4.5"/><rect class="cls-1" x="77.5" y="32" width="129" height="9" rx="4.5" ry="4.5"/><rect class="cls-1" y="69" width="57" height="36" rx="3" ry="3"/><rect class="cls-1" x="75.33" y="69" width="57" height="36" rx="3" ry="3"/><rect class="cls-1" x="150.67" y="69" width="57" height="36" rx="3" ry="3"/><rect class="cls-1" x="226" y="69" width="57" height="36" rx="3" ry="3"/><rect class="cls-1" y="115" width="57" height="36" rx="3" ry="3"/><rect class="cls-1" x="75.33" y="115" width="57" height="36" rx="3" ry="3"/><rect class="cls-1" x="150.67" y="115" width="57" height="36" rx="3" ry="3"/><rect class="cls-1" x="226" y="115" width="57" height="36" rx="3" ry="3"/></g></g></svg>