<svg xmlns="http://www.w3.org/2000/svg" viewBox="0 0 13.36 17.22"><defs><style>.cls-1{fill:#ec4079;stroke:#ec4079;stroke-miterlimit:10;stroke-width:0.5px;}</style></defs><title>icn_Lock</title><g id="Layer_2" data-name="Layer 2"><g id="Layer_1-2" data-name="Layer 1"><path class="cls-1" d="M11,7.11V4.54a4.29,4.29,0,1,0-8.57,0V7.11A2.15,2.15,0,0,0,.25,9.25v5.57A2.15,2.15,0,0,0,2.39,17H11a2.15,2.15,0,0,0,2.14-2.14V9.25A2.15,2.15,0,0,0,11,7.11ZM3.25,4.54a3.43,3.43,0,1,1,6.86,0V7.11H3.25Zm9,10.29A1.29,1.29,0,0,1,11,16.11H2.39a1.29,1.29,0,0,1-1.29-1.29V9.25A1.29,1.29,0,0,1,2.39,8H11a1.29,1.29,0,0,1,1.29,1.29v5.57Z"/></g></g></svg>