<?xml version="1.0" encoding="utf-8"?>
<!-- Generator: Adobe Illustrator 21.0.0, SVG Export Plug-In . SVG Version: 6.00 Build 0)  -->
<svg version="1.1" id="Layer_1" xmlns="http://www.w3.org/2000/svg" xmlns:xlink="http://www.w3.org/1999/xlink" x="0px" y="0px"
	 viewBox="0 0 20.5 18" style="enable-background:new 0 0 20.5 18;" xml:space="preserve">
<style type="text/css">
	.st0{fill:#FFFFFF;}
</style>
<g>
	<path class="st0" d="M20.3,10.7c-0.3,0.3-0.7,0.3-0.9,0L18,9.4c-0.2,4.8-4.1,8.6-9,8.6c-4.9,0-9-4-9-9c0-4.9,4-9,9-9
		c3.4,0,6.4,1.9,8,4.9c0.2,0.4,0,0.7-0.3,0.9c-0.4,0.2-0.7,0-0.9-0.3C14.5,3,11.9,1.4,9,1.4C4.8,1.4,1.4,4.8,1.4,9
		c0,4.2,3.4,7.6,7.6,7.6c4.1,0,7.4-3.2,7.6-7.2l-1.3,1.3c-0.3,0.3-0.7,0.3-0.9,0c-0.3-0.3-0.3-0.7,0-0.9l2.5-2.5l0,0
		c0.1-0.1,0.3-0.2,0.5-0.2c0.2,0,0.4,0.1,0.5,0.2l0,0l2.5,2.5C20.5,10.1,20.5,10.5,20.3,10.7z"/>
</g>
</svg>
