<svg xmlns="http://www.w3.org/2000/svg" viewBox="0 0 30.13 24"><defs><style>.cls-1{fill:#fff;}</style></defs><title>Speaker</title><g id="Layer_2" data-name="Layer 2"><g id="Layer_1-2" data-name="Layer 1"><path class="cls-1" d="M12.15,23.77a.75.75,0,0,0,.53.23.9.9,0,0,0,.31-.08.75.75,0,0,0,.46-.69V.78a.78.78,0,0,0-.5-.73.77.77,0,0,0-.84.19L6,6.89H.76A.77.77,0,0,0,0,7.65V16.4a.77.77,0,0,0,.76.76H5.35ZM1.53,8.42H6.34a.78.78,0,0,0,.57-.23l5-5.42V21.44L6.19,15.83a.75.75,0,0,0-.53-.23H1.53Z"/><path class="cls-1" d="M22.84,3.64a.76.76,0,0,0-1.18,1A11.71,11.71,0,0,1,24.21,12a11.74,11.74,0,0,1-2.52,7.29.78.78,0,0,0,.11,1.07.73.73,0,0,0,.46.15.8.8,0,0,0,.61-.31A13.17,13.17,0,0,0,25.7,12,13.19,13.19,0,0,0,22.84,3.64Z"/><path class="cls-1" d="M18.18,18.39a.73.73,0,0,0,.46.15.8.8,0,0,0,.61-.31A10,10,0,0,0,21.39,12a10.32,10.32,0,0,0-2.22-6.34.76.76,0,0,0-1.18,1A8.55,8.55,0,0,1,19.86,12,8.8,8.8,0,0,1,18,17.32.78.78,0,0,0,18.18,18.39Z"/><path class="cls-1" d="M25.55,1.73a.74.74,0,0,0-.11,1.07,14.84,14.84,0,0,1,.08,18.33.78.78,0,0,0,.11,1.07.73.73,0,0,0,.46.15.8.8,0,0,0,.61-.31,16.35,16.35,0,0,0-.11-20.2A.69.69,0,0,0,25.55,1.73Z"/></g></g></svg>