<?xml version="1.0" encoding="utf-8"?>
<!-- Generator: Adobe Illustrator 21.0.0, SVG Export Plug-In . SVG Version: 6.00 Build 0)  -->
<svg version="1.1" id="Layer_1" xmlns="http://www.w3.org/2000/svg" xmlns:xlink="http://www.w3.org/1999/xlink" x="0px" y="0px"
	 viewBox="0 0 24 24" style="enable-background:new 0 0 24 24;" xml:space="preserve">
<style type="text/css">
	.st0{fill:#FFFFFF;}
</style>
<title>icn_Enter fullscreen</title>
<g id="Layer_2">
	<g id="Layer_1-2">
		<path class="st0" d="M5.4,2.7L7,1c0.2-0.1,0.2-0.4,0.2-0.6C7.1,0.2,6.9,0,6.6,0h-6C0.3,0,0,0.3,0,0.6l0,0v6.1
			c0,0.2,0.1,0.4,0.3,0.6c0.1,0,0.2,0,0.2,0c0.1,0,0.3,0,0.4-0.1l1.7-1.7l4.2,4.2c0.3,0.2,0.6,0.2,0.9,0l1.9-1.9
			c0.2-0.2,0.2-0.6,0-0.8l0,0L5.4,2.7z"/>
		<path class="st0" d="M23.7,16.8c-0.2-0.1-0.5,0-0.6,0.1l-1.6,1.6l-4.3-4.2c-0.2-0.2-0.6-0.2-0.8,0l0,0l-1.9,1.9
			c-0.2,0.2-0.2,0.6,0,0.8l0,0l4.3,4.3L17,23c-0.2,0.2-0.2,0.4-0.1,0.6s0.3,0.3,0.5,0.4h6c0.3,0,0.6-0.3,0.6-0.6v-6
			C24,17.2,23.9,16.9,23.7,16.8z"/>
		<path class="st0" d="M7.8,14.4c-0.2-0.2-0.6-0.2-0.8,0l0,0l-4.2,4.3L1,17c-0.2-0.2-0.4-0.2-0.6-0.1C0.1,17,0,17.2,0,17.4v6
			C0,23.8,0.3,24,0.6,24h6.1c0.2,0,0.4-0.1,0.6-0.4c0.1-0.2,0-0.5-0.1-0.6l-1.7-1.6l4.2-4.3c0.2-0.2,0.2-0.6,0-0.8l0,0L7.8,14.4z"/>
		<path class="st0" d="M23.4,0h-6.1c-0.2,0-0.4,0.1-0.5,0.3s0,0.5,0.1,0.6l1.6,1.7l-4.2,4.3c-0.2,0.2-0.2,0.6,0,0.8l0,0l1.9,1.9
			c0.3,0.2,0.6,0.2,0.9,0l4.3-4.3L23,7c0.1,0.1,0.3,0.2,0.4,0.2s0.2,0,0.2,0C23.9,7.1,24,6.8,24,6.6v-6C24,0.3,23.7,0,23.4,0z"/>
	</g>
</g>
</svg>
