<svg xmlns="http://www.w3.org/2000/svg" viewBox="0 0 28.63 28.63"><defs><style>.cls-1,.cls-3{fill:#fff;}.cls-1{stroke:#a9b0b5;stroke-miterlimit:10;}.cls-1,.cls-4{stroke-width:0.92px;}.cls-2{fill:#a9b0b5;}.cls-4{fill:none;stroke:#fff;stroke-linecap:round;}</style></defs><title>Objective</title><g id="Layer_2" data-name="Layer 2"><g id="Layer_1-2" data-name="Layer 1"><circle class="cls-1" cx="14.32" cy="14.32" r="13.85"/><circle class="cls-2" cx="14.32" cy="14.32" r="11.39"/><path class="cls-3" d="M15.24,14.32a.92.92,0,1,1-.92-.92.92.92,0,0,1,.92.92"/><path class="cls-4" d="M17.09,17.09H19.4"/><path class="cls-4" d="M17.09,19.4V17.09"/><path class="cls-4" d="M11.54,17.09V19.4"/><path class="cls-4" d="M9.24,17.09h2.31"/><path class="cls-4" d="M7.85,20.78l3.69-3.69"/><path class="cls-4" d="M17.09,17.09l3.69,3.69"/><path class="cls-4" d="M11.54,11.54H9.24"/><path class="cls-4" d="M11.54,9.24v2.31"/><path class="cls-4" d="M17.09,11.54V9.24"/><path class="cls-4" d="M19.4,11.54H17.09"/><path class="cls-4" d="M20.78,7.85l-3.69,3.69"/><path class="cls-4" d="M11.54,11.54,7.85,7.85"/></g></g></svg>