<svg xmlns="http://www.w3.org/2000/svg" viewBox="0 0 26 26"><defs><style>.cls-1{fill:#fff;fill-rule:evenodd;}.cls-2{fill:none;stroke:#f7f9fb;stroke-linecap:round;stroke-linejoin:round;stroke-width:2px;}</style></defs><title>Pause Video</title><g id="Layer_2" data-name="Layer 2"><g id="Layer_1-2" data-name="Layer 1"><path class="cls-1" d="M10.32,20.5H11l5.09,0a3,3,0,0,0,1-.15,1.46,1.46,0,0,0,.92-1,4.28,4.28,0,0,0,.18-1.38c0-.63,0-1.26,0-1.89V16l.14.12L20,17.74l2,2c.2.21.4.42.61.61a.56.56,0,0,0,.58.09A1.36,1.36,0,0,0,24,19.3c0-4.16,0-8.32,0-12.47ZM18.19,8a4.79,4.79,0,0,0-.14-1.3,1.48,1.48,0,0,0-1.3-1.16A4.76,4.76,0,0,0,16,5.45c-.65,0-1.29,0-1.93,0-2.59,0-5.19,0-7.78,0A3.86,3.86,0,0,0,5,5.69,1.44,1.44,0,0,0,4,7.07V18.94a1.17,1.17,0,0,0,0,.19,1.41,1.41,0,0,0,1.15,1.23,5,5,0,0,0,.95.12L18.19,8.39Z"/><line class="cls-2" x1="1" y1="25" x2="25" y2="1"/></g></g></svg>