<svg xmlns="http://www.w3.org/2000/svg" viewBox="0 0 88.51 81.02"><defs><style>.cls-1{fill:#f06;}</style></defs><title>icn_Rich Learning Content</title><g id="Layer_2" data-name="Layer 2"><g id="Layer_3" data-name="Layer 3"><path class="cls-1" d="M88.44,58.66a1.51,1.51,0,0,0-1.22-1L75.55,56,70.35,45.82a1.56,1.56,0,0,0-2.67,0L62.47,56,50.8,57.62a1.47,1.47,0,0,0-1.22,1A1.51,1.51,0,0,0,50,60.2l8.42,7.91-2,11.15a1.51,1.51,0,0,0,2.16,1.61L69,75.55l10.44,5.3a1.51,1.51,0,0,0,2.16-1.61l-2-11.15L88,60.19A1.47,1.47,0,0,0,88.44,58.66ZM77,66.48a1.47,1.47,0,0,0-.45,1.35l1.59,9-8.45-4.28a1.46,1.46,0,0,0-1.35,0l-8.45,4.28,1.59-9A1.47,1.47,0,0,0,61,66.48l-6.72-6.32,9.33-1.31a1.48,1.48,0,0,0,1.13-.8L69,49.81l4.23,8.25a1.48,1.48,0,0,0,1.13.8l9.33,1.31Z"/><path class="cls-1" d="M38.32,22.74A1.51,1.51,0,0,0,36,24V45a1.49,1.49,0,0,0,1.5,1.5,1.46,1.46,0,0,0,.81-.24l16.5-10.5a1.5,1.5,0,0,0,0-2.52ZM39,42.28V26.73l12.21,7.77Z"/><path class="cls-1" d="M45,66H18V3H69v31.5a1.5,1.5,0,0,0,1.5,1.5H84V48a1.5,1.5,0,1,0,3,0V1.5A1.5,1.5,0,0,0,85.51,0H1.5A1.5,1.5,0,0,0,0,1.5v66A1.5,1.5,0,0,0,1.5,69H45a1.5,1.5,0,1,0,0-3ZM15,33H3V19.5H15ZM3,36H15v13.5H3Zm69-3V19.5H84V33ZM84,3V16.5H72V3ZM3,3H15V16.5H3ZM3,66V52.51H15V66Z"/></g></g></svg>