<svg xmlns="http://www.w3.org/2000/svg" viewBox="0 0 116.52 58.07"><defs><style>.cls-1{fill:#ed1d45;}.cls-2{fill:#7598d1;}</style></defs><title>icn_wrongAnswer</title><g id="Layer_2" data-name="Layer 2"><g id="Layer_1-2" data-name="Layer 1"><path class="cls-1" d="M56,8.8c-.57-2.22-2.72-4.93-7.87-4.93a10,10,0,0,0-7.51,3c-1.22,1.07-2.15,1.86-4.08,1.86H33.87v2.86h2.65c1.93,0,2.79.79,4.08,1.86a10,10,0,0,0,7.51,3c5.22,0,7.29-2.72,7.87-4.93l9.15,5.36V3.5ZM48.1,13.66a7.43,7.43,0,0,1-5.65-2.29C42,11,41.52,10.58,41,10.23c.5-.36,1-.79,1.43-1.14A7.43,7.43,0,0,1,48.1,6.79c5,0,5.22,3.15,5.22,3.43S53.32,13.66,48.1,13.66Zm14.16-1.72-3-1.72,3-1.72Z"/><rect class="cls-1" x="68.7" y="8.8" width="4.29" height="2.86"/><rect class="cls-1" x="77.64" y="8.8" width="4.65" height="2.86"/><rect class="cls-1" x="86.93" y="8.8" width="4.29" height="2.86"/><path class="cls-1" d="M62,58.07a19,19,0,1,1,19-19A19,19,0,0,1,62,58.07Zm0-34.33A15.38,15.38,0,1,0,77.42,39.12,15.35,15.35,0,0,0,62,23.74Z"/><path class="cls-1" d="M62,50.7A11.59,11.59,0,1,1,73.63,39.12,11.63,11.63,0,0,1,62,50.7Zm0-19.59a8,8,0,1,0,8,8A8,8,0,0,0,62,31.11Z"/><circle class="cls-1" cx="62.05" cy="39.12" r="3.15"/><rect class="cls-1" x="35.1" y="13.68" width="1.43" height="5.08" transform="translate(-0.98 30.07) rotate(-44.99)"/><rect class="cls-1" x="33.34" y="3.5" width="5.08" height="1.43" transform="translate(7.53 26.6) rotate(-45)"/><rect class="cls-1" x="31.22" y="15.88" width="1.43" height="4.86"/><rect class="cls-1" x="31.22" width="1.43" height="4.86"/><path class="cls-2" d="M21.82,45.9a3.7,3.7,0,1,0-3.7-3.7A3.76,3.76,0,0,0,21.82,45.9Zm0-5.9a2.2,2.2,0,1,1-2.2,2.2A2.16,2.16,0,0,1,21.82,40Z"/><path class="cls-2" d="M1.82,24.6a.76.76,0,0,0,.5.2.76.76,0,0,0,.5-.2.67.67,0,0,0,0-1L1.22,22a.67.67,0,0,0-1,0c-.2.3-.3.8,0,1Z"/><path class="cls-2" d="M6.93,29.7a.72.72,0,0,0,1,0,.67.67,0,0,0,0-1l-1.6-1.6a.67.67,0,0,0-1,0,.67.67,0,0,0,0,1Z"/><path class="cls-2" d="M.72,29.9a.76.76,0,0,0,.5-.2l1.6-1.6a.67.67,0,0,0,0-1,.67.67,0,0,0-1,0L.22,28.7a.67.67,0,0,0,0,1C.32,29.9.52,29.9.72,29.9Z"/><path class="cls-2" d="M5.82,24.8a.76.76,0,0,0,.5-.2L7.92,23a.71.71,0,0,0-1-1l-1.6,1.6a.67.67,0,0,0,0,1A1.69,1.69,0,0,0,5.82,24.8Z"/><path class="cls-2" d="M112.82,17.9a3.7,3.7,0,1,0-3.7-3.7A3.76,3.76,0,0,0,112.82,17.9Zm0-5.9a2.2,2.2,0,1,1-2.2,2.2A2.16,2.16,0,0,1,112.82,12Z"/><path class="cls-2" d="M99.82,31.6a.73.73,0,0,0,1,0,.67.67,0,0,0,0-1L99.22,29a.67.67,0,0,0-1,0c-.2.3-.3.8,0,1Z"/><path class="cls-2" d="M104.93,36.7a.72.72,0,0,0,1,0,.67.67,0,0,0,0-1l-1.6-1.6a.71.71,0,0,0-1,1Z"/><path class="cls-2" d="M98.72,36.9a.76.76,0,0,0,.5-.2l1.6-1.6a.71.71,0,0,0-1-1l-1.6,1.6a.67.67,0,0,0,0,1C98.32,36.9,98.52,36.9,98.72,36.9Z"/><path class="cls-2" d="M103.82,31.8a.76.76,0,0,0,.5-.2l1.6-1.6a.71.71,0,0,0-1-1l-1.6,1.6a.67.67,0,0,0,0,1A1.69,1.69,0,0,0,103.82,31.8Z"/></g></g></svg>