<svg xmlns="http://www.w3.org/2000/svg" viewBox="0 0 63.5 63.5"><defs><style>.cls-1,.cls-3{fill:#fff;}.cls-1{stroke:#c5d1d8;stroke-miterlimit:10;stroke-width:1.5px;}.cls-2{fill:#49498c;}.cls-3{fill-rule:evenodd;}</style></defs><title>icn_Activity</title><g id="Layer_2" data-name="Layer 2"><g id="Layer_3" data-name="Layer 3"><circle class="cls-1" cx="31.75" cy="31.75" r="31"/><circle class="cls-2" cx="31.75" cy="32.1" r="25.83"/><path class="cls-3" d="M38.68,41.12,35.5,38a5.28,5.28,0,0,1-4.21,1.35A5.12,5.12,0,0,1,27.51,37l-3.2,1.78a9.47,9.47,0,0,1,.28,1,3.43,3.43,0,0,1-1.13,3.27,3.35,3.35,0,0,1-3.52.75,3.35,3.35,0,0,1-2.37-2.78,3.45,3.45,0,0,1,2.18-3.92,3.56,3.56,0,0,1,3.36.38.18.18,0,0,0,.22,0l3.36-1.88a.16.16,0,0,0,.09-.22,5.16,5.16,0,0,1,2.33-5.81.23.23,0,0,0,.1-.16c0-1.48-.06-3-.1-4.44-.19,0-.38-.08-.55-.14a4,4,0,0,1-.46-7.47,4,4,0,1,1,2.72,7.51c-.09,0-.14.05-.14.17,0,1.22.08,2.44.12,3.65,0,.06,0,.11,0,.15.39,0,.78-.05,1.16-.05a5,5,0,0,1,3.89,1.83c.19.22.11.2.38.07l.83-.43a3.36,3.36,0,0,1-.21-1.27,2.94,2.94,0,0,1,4.88-2,2.94,2.94,0,0,1-3.39,4.75.47.47,0,0,0-.57,0c-.27.16-.56.29-.84.43-.09,0-.12.08-.09.19a5.26,5.26,0,0,1-.35,4.22.14.14,0,0,0,0,.2l3.17,3.12,0,0a4,4,0,0,1,3.52-.5A3.75,3.75,0,0,1,45.34,41a3.93,3.93,0,0,1-.67,5.07,3.93,3.93,0,0,1-6-5Z"/></g></g></svg>