<svg xmlns="http://www.w3.org/2000/svg" viewBox="0 0 40 40"><defs><style>.cls-1{fill:#dc4335;}.cls-2{fill:#fff;}</style></defs><title>icn_Google plus</title><g id="Layer_2" data-name="Layer 2"><g id="Layer_3" data-name="Layer 3"><circle class="cls-1" cx="20" cy="20" r="20"/><path class="cls-2" d="M20.95,14.6l-2.14,2c-2.24-1.37-4.24-1.41-5.63-.21a4.55,4.55,0,0,0,3.51,8.12,3.65,3.65,0,0,0,3.09-2.91h-4V18.8H19.9c.83,0,1.66,0,2.49,0,.45,0,.61.19.63.63a7.88,7.88,0,0,1-1.71,5.85,6.26,6.26,0,0,1-4.12,2.16,8,8,0,0,1-5.75-1.26A7.59,7.59,0,0,1,10.3,14.91a7.39,7.39,0,0,1,5.78-2.41A6.45,6.45,0,0,1,20.95,14.6Z"/><path class="cls-2" d="M31.69,21.13h-2v2.06H27.32v-2H25.23V18.84h2v-2.1h2.34v2h2.08Z"/></g></g></svg>