<svg xmlns="http://www.w3.org/2000/svg" viewBox="0 0 82.72 88"><defs><style>.cls-1{fill:#f06;}</style></defs><title>icn_ Interactive Quizzes</title><g id="Layer_2" data-name="Layer 2"><g id="Layer_3" data-name="Layer 3"><path class="cls-1" d="M82.72,44a34.92,34.92,0,0,0-7.78-21.93A14.07,14.07,0,1,0,50.27,8.94c-.91-.08-1.82-.14-2.75-.14A35.19,35.19,0,0,0,15.3,30c-.4,0-.81-.06-1.22-.06a14.08,14.08,0,0,0,0,28.16c.41,0,.82,0,1.22-.06A35.2,35.2,0,0,0,47.52,79.2c.93,0,1.84-.06,2.75-.14A14.07,14.07,0,1,0,74.94,65.93,34.91,34.91,0,0,0,82.72,44ZM63.36,3.52A10.56,10.56,0,1,1,52.8,14.08,10.57,10.57,0,0,1,63.36,3.52Zm-49.28,51A10.56,10.56,0,1,1,24.64,44,10.57,10.57,0,0,1,14.08,54.56ZM49.39,75.61c-.62,0-1.24.07-1.87.07A31.69,31.69,0,0,1,18.78,57.25a14.06,14.06,0,0,0,0-26.51A31.68,31.68,0,0,1,47.52,12.32c.63,0,1.25.05,1.87.1a13,13,0,0,0-.11,1.67A14.06,14.06,0,0,0,72.57,24.71a31.37,31.37,0,0,1,0,38.58A14,14,0,0,0,49.39,75.61Zm14,8.87A10.56,10.56,0,1,1,73.92,73.92,10.57,10.57,0,0,1,63.36,84.48Zm0-40.48a1.76,1.76,0,0,0-.87-1.52L41.37,30.16a1.76,1.76,0,0,0-2.65,1.52V56.32a1.76,1.76,0,0,0,2.65,1.52L62.49,45.52A1.76,1.76,0,0,0,63.36,44ZM42.24,53.26V34.74L58.11,44ZM67.4,67.4l-4,4-4-4-2.49,2.49,4,4-4,4,2.49,2.49,4-4,4,4L69.88,78l-4-4,4-4ZM71.75,9.93l-2.7-2.25-7.57,9.08-3.92-3.92-2.49,2.49L61.72,22ZM15.84,35.2H12.32v9.74l6.06,4,2-2.93-4.5-3Z"/></g></g></svg>