<svg xmlns="http://www.w3.org/2000/svg" viewBox="0 0 40 40"><defs><style>.cls-1{fill:#339dc3;}.cls-2{fill:#fff;}</style></defs><title>icn_Twitter</title><g id="Layer_2" data-name="Layer 2"><g id="Layer_3" data-name="Layer 3"><circle class="cls-1" cx="20" cy="20" r="20"/><path class="cls-2" d="M32.34,12.34a10.11,10.11,0,0,1-2.91.8,5.08,5.08,0,0,0,2.23-2.8,10.14,10.14,0,0,1-3.22,1.23,5.07,5.07,0,0,0-8.63,4.62A14.38,14.38,0,0,1,9.37,10.89a5.07,5.07,0,0,0,1.57,6.76A5,5,0,0,1,8.65,17s0,0,0,.06a5.07,5.07,0,0,0,4.06,5,5.08,5.08,0,0,1-2.29.09,5.07,5.07,0,0,0,4.73,3.52,10.23,10.23,0,0,1-7.5,2.1A14.4,14.4,0,0,0,29.83,15.62q0-.33,0-.66a10.28,10.28,0,0,0,2.53-2.62Zm0,0"/></g></g></svg>