<svg xmlns="http://www.w3.org/2000/svg" viewBox="2180.606 1801.063 91.634 86.137">
  <defs>
    <style>
      .cls-1, .cls-2, .cls-3 {
        fill: none;
        stroke: #fff;
        stroke-miterlimit: 10;
      }

      .cls-1, .cls-2 {
        stroke-width: 3.762px;
      }

      .cls-2, .cls-3 {
        stroke-linecap: round;
      }

      .cls-3 {
        stroke-width: 3px;
      }

      .cls-4 {
        fill: #fff;
      }
    </style>
  </defs>
  <g id="Group_168" data-name="Group 168" transform="translate(2180.587 1801.272)">
    <path id="Path_121" data-name="Path 121" class="cls-1" d="M83.421,51.79c0,3.483-3.4,6.269-6.885,6.269a6.288,6.288,0,0,1-6.3-6.3,5.6,5.6,0,0,1,.027-.67,6.176,6.176,0,0,1-3.4.991,6.3,6.3,0,0,1-3.777-11.332,5.942,5.942,0,0,1-.991.08,6.3,6.3,0,0,1-.857-12.538,5.965,5.965,0,0,1,3.7-10.448,5.724,5.724,0,0,1-.455-2.25,5.98,5.98,0,0,1,5.974-5.974,6.279,6.279,0,0,1,2.358.482,5.444,5.444,0,0,1,10.636,1.634V51.763Z" transform="translate(-39.46 -4.628)"/>
    <path id="Path_122" data-name="Path 122" class="cls-2" d="M103,77a16.91,16.91,0,0,0,4.126,5.117c2.411,1.9,5.787,2.893,9.7-.295" transform="translate(-74.015 -56.388)"/>
    <path id="Path_123" data-name="Path 123" class="cls-2" d="M121.186,40.5s7.18,8.439-2.786,14.9" transform="translate(-85.289 -29.666)"/>
    <path id="Path_124" data-name="Path 124" class="cls-2" d="M78.1,109s5.144,5.68,11.439,2.491c0,0-3.188,5.278.08,8.707" transform="translate(-55.786 -79.815)"/>
    <path id="Path_125" data-name="Path 125" class="cls-2" d="M109.9,155s.268-9.43,9.028-6.028" transform="translate(-79.067 -108.54)"/>
    <path id="Path_126" data-name="Path 126" class="cls-1" d="M172.527,12.569c0-3.483,3.4-6.269,6.885-6.269a6.288,6.288,0,0,1,6.3,6.3,5.6,5.6,0,0,1-.027.67,6.176,6.176,0,0,1,3.4-.991,6.3,6.3,0,0,1,3.777,11.332,5.941,5.941,0,0,1,.991-.08,6.3,6.3,0,0,1,.857,12.538,5.965,5.965,0,0,1-3.7,10.448,5.723,5.723,0,0,1,.455,2.25,5.98,5.98,0,0,1-5.974,5.974,6.279,6.279,0,0,1-2.358-.482A5.444,5.444,0,0,1,172.5,52.62V12.6Z" transform="translate(-124.896 -4.628)"/>
    <path id="Path_127" data-name="Path 127" class="cls-2" d="M190.724,109.979a16.91,16.91,0,0,0-4.126-5.117c-2.411-1.9-5.787-2.893-9.7.295" transform="translate(-128.117 -75.49)"/>
    <path id="Path_128" data-name="Path 128" class="cls-2" d="M195.863,124.6s-7.18-8.439,2.786-14.9" transform="translate(-140.168 -80.327)"/>
    <path id="Path_129" data-name="Path 129" class="cls-2" d="M221.92,66.2s-5.144-5.68-11.439-2.491c0,0,3.188-5.278-.08-8.707" transform="translate(-152.642 -40.282)"/>
    <path id="Path_130" data-name="Path 130" class="cls-2" d="M196.928,32.3s-.268,9.43-9.028,6.028" transform="translate(-136.17 -23.663)"/>
    <path id="Path_131" data-name="Path 131" class="cls-3" d="M124.3,252.7h23.522v9.805h-3.215v2.813h-2.813s-5.519,9.269-10.743,0h-3.617v-2.679h-3.081L124.3,252.7Z" transform="translate(-89.609 -185.017)"/>
    <line id="Line_3" data-name="Line 3" class="cls-2" x1="9.805" y2="4.313" transform="translate(7.017 43.384)"/>
    <line id="Line_4" data-name="Line 4" class="cls-2" x1="10.77" transform="translate(1.9 28.998)"/>
    <line id="Line_5" data-name="Line 5" class="cls-2" x1="8.868" y1="4.179" transform="translate(8.49 9.762)"/>
    <line id="Line_6" data-name="Line 6" class="cls-2" x2="9.832" y2="4.313" transform="translate(74.823 43.384)"/>
    <line id="Line_7" data-name="Line 7" class="cls-2" x2="10.77" transform="translate(79.002 28.998)"/>
    <line id="Line_8" data-name="Line 8" class="cls-2" y1="4.179" x2="8.894" transform="translate(74.287 9.762)"/>
    <path id="Path_132" data-name="Path 132" class="cls-4" d="M95.7,187.71s6.081,6.51,7.742,13.877h23.334s1.607-8.359,7.233-13.743h-2.2s-.911,3.51-5.412,5.412c0,0-2.143,4.8-2.2,5.278H105.8a41.782,41.782,0,0,0-1.956-4.983s-5.037-1.42-6.617-5.894A7.287,7.287,0,0,0,95.7,187.71Z" transform="translate(-68.671 -137.387)"/>
    <path id="Path_133" data-name="Path 133" class="cls-4" d="M155.1.252a19.133,19.133,0,0,1,6.3,0,10.509,10.509,0,0,0-2.6,2.679.534.534,0,0,1-.482.295h-.054a.6.6,0,0,1-.482-.268A10.474,10.474,0,0,0,155.1.252Z" transform="translate(-112.157 0)"/>
  </g>
</svg>
