<svg xmlns="http://www.w3.org/2000/svg" viewBox="0 0 29.09 29.09"><defs><style>.cls-1,.cls-4{fill:none;}.cls-1{stroke:#6fd180;stroke-miterlimit:10;stroke-width:1.39px;}.cls-2{fill:#6fd180;}.cls-3{fill:#fff;}.cls-4{stroke:#fff;stroke-linecap:round;stroke-width:0.92px;}</style></defs><title>Objective active</title><g id="Layer_2" data-name="Layer 2"><g id="Layer_1-2" data-name="Layer 1"><circle class="cls-1" cx="14.55" cy="14.55" r="13.85"/><circle class="cls-2" cx="14.55" cy="14.55" r="11.39"/><path class="cls-3" d="M15.47,14.55a.92.92,0,1,1-.92-.92.92.92,0,0,1,.92.92"/><path class="cls-4" d="M17.32,17.32h2.31"/><path class="cls-4" d="M17.32,19.63V17.32"/><path class="cls-4" d="M11.78,17.32v2.31"/><path class="cls-4" d="M9.47,17.32h2.31"/><path class="cls-4" d="M8.08,21l3.69-3.69"/><path class="cls-4" d="M17.32,17.32,21,21"/><path class="cls-4" d="M11.78,11.78H9.47"/><path class="cls-4" d="M11.78,9.47v2.31"/><path class="cls-4" d="M17.32,11.78V9.47"/><path class="cls-4" d="M19.63,11.78H17.32"/><path class="cls-4" d="M21,8.08l-3.69,3.69"/><path class="cls-4" d="M11.78,11.78,8.08,8.08"/></g></g></svg>