<svg xmlns="http://www.w3.org/2000/svg" viewBox="0 0 93.18 93.18"><defs><style>.cls-1{fill:#f06;}</style></defs><title>icn_Self-Paced Learning</title><g id="Layer_2" data-name="Layer 2"><g id="Layer_3" data-name="Layer 3"><path class="cls-1" d="M46.59,0A46.59,46.59,0,1,0,93.18,46.59,46.6,46.6,0,0,0,46.59,0Zm0,1.94A44.65,44.65,0,1,1,1.94,46.59,44.63,44.63,0,0,1,46.59,1.94ZM28.14,19.41a1,1,0,0,0-1,1v7.74a1,1,0,1,0,1.94,0V21.35H56.28v6.8a1,1,0,0,0,1,1H64v5a1,1,0,1,0,1.94,0v-6a1,1,0,0,0-.28-.73l-7.76-7.76a1,1,0,0,0-.7-.28l-.17,0-.11,0Zm30.09,3.32,4.45,4.45H58.22ZM33.86,25.24A1,1,0,0,0,34,27.18H35.9a1,1,0,1,0,0-1.94H33.86Zm5.85,0a1,1,0,0,0,.1,1.94h7.72a1,1,0,1,0,0-1.94H39.71Zm-5.85,3.88A1,1,0,1,0,34,31.06H35.9a1,1,0,1,0,0-1.94H33.86Zm5.85,0a1,1,0,0,0,.1,1.94h7.72a1,1,0,1,0,0-1.94H39.71Zm-11.48,2a7.6,7.6,0,0,0-7.57,7.62V51.43l-.24.14a6.88,6.88,0,0,0-1.57,1.12,5.14,5.14,0,0,0-1.35,2.93,10,10,0,0,0,0,1.22v5.27H38.82V56.24s0-.08,0-.12a5,5,0,0,0-1.63-3.67,6,6,0,0,0-.95-.65l-.44-.26V38.71A7.63,7.63,0,0,0,32,32.08h0l-.49-.25h0l-.47-.2a7.57,7.57,0,0,0-2.78-.53Zm40.59.75a1,1,0,1,0,.1,1.94h.52l-6.61,6.82-7.17-2.79a1,1,0,0,0-.91.12L45,44.83a1,1,0,1,0,1.1,1.6l0,0,9.27-6.6,7.29,2.83a1,1,0,0,0,1.05-.23l7.07-7.29v.59a1,1,0,1,0,1.94,0s0,0,0,0v-2.9a1,1,0,0,0-1-1h-3ZM41.71,33a1,1,0,0,0-1,1V59.2a1,1,0,0,0,.67.92l.09,0,.19,0h33a1,1,0,1,0,0-1.94h-1V39.79a1,1,0,0,0-1-1H68.9a1,1,0,0,0-1,1V58.24H66V45.62a1,1,0,0,0-1-1H61.14a1,1,0,0,0-1,1V58.24H58.22V43.67a1,1,0,0,0-1-1H53.37a1,1,0,0,0-1,1V58.24H50.46V49.5a1,1,0,0,0-1-1H45.61a1,1,0,0,0-1,1v8.74H42.69V34a1,1,0,0,0-1-1h0ZM28.23,33a5.6,5.6,0,0,1,2.07.39h0l.33.14.37.19a5.67,5.67,0,0,1,2.85,4.95V50.39l-1.66-1a1.38,1.38,0,0,1-.67-1.19V46.75l.07-.08a6.66,6.66,0,0,0,1.25-3.84V40.06c0-.05,0-.07,0,0s0,.09,0,0V38.8a1,1,0,0,0-.72-.94,4,4,0,0,1-1.62-.73,1,1,0,0,0-.33-.2,1.7,1.7,0,0,0-1.88.2,3.49,3.49,0,0,1-1.39.27c-.74,0-1.57-.06-2.27-.06a1,1,0,0,0-1,.88l0,.35s0,.06,0,.09V40c0,.06,0,.15,0,0s0-.09,0,0v2.77a6.64,6.64,0,0,0,1.13,3.64v1.19a2.36,2.36,0,0,1-1.15,2l-1,.59V38.72A5.62,5.62,0,0,1,28.23,33Zm1.08,5.62h0a1,1,0,0,0,.38.15,5.22,5.22,0,0,0,1.21.58V40s0,0,0,0v2.79a4.89,4.89,0,0,1-.88,2.7,2.35,2.35,0,0,1-1.79,1.14,2.35,2.35,0,0,1-1.79-1.14,4.89,4.89,0,0,1-.88-2.7V40.06c0,.12,0,0,0,0s0,0,0,0v-.71c.45,0,.85,0,1.38,0A4.19,4.19,0,0,0,29.31,38.65Zm40.56,2.11h1.94V58.21H69.87ZM54.34,44.64h1.94V58.21H54.34Zm7.76,1.94H64V58.21H62.11Zm-35.48,1.6a3.52,3.52,0,0,0,1.61.42,3.47,3.47,0,0,0,1.36-.31,3.32,3.32,0,0,0,1.61,2.78l.87.52a3.92,3.92,0,0,1-2,3.18,3.84,3.84,0,0,1-3.92-.08,3.92,3.92,0,0,1-1.83-3.21l.2-.12A4.26,4.26,0,0,0,26.62,48.19Zm20,2.28h1.94v7.74H46.58Zm-24,2.1a5.88,5.88,0,0,0,2.64,3.78,5.79,5.79,0,0,0,5.9.11,5.86,5.86,0,0,0,2.81-3.8l1.36.8c.22.13.59.37.65.43h0a3.05,3.05,0,0,1,1,2.24s0,.06,0,.09v3.93H19.41V56.84c0-.31,0-.82,0-1h0A3.24,3.24,0,0,1,20.27,54a9.37,9.37,0,0,1,1.15-.79Zm24.91,9.55a1,1,0,0,0,.09,1.94H68.89a1,1,0,1,0,0-1.94H47.45ZM28.12,64.07a1,1,0,0,0-1,1V72.8a1,1,0,0,0,1,1H65a1,1,0,0,0,1-1V67A1,1,0,1,0,64,67v4.86H29.11V65.05A1,1,0,0,0,28.12,64.07Z"/></g></g></svg>