<svg xmlns="http://www.w3.org/2000/svg" viewBox="0 0 29.09 29.09"><defs><style>.cls-1{fill:none;stroke:#6fd180;stroke-miterlimit:10;stroke-width:1.39px;}.cls-2{fill:#6fd180;}.cls-3{fill:#fff;fill-rule:evenodd;}</style></defs><title>Activity active</title><g id="Layer_2" data-name="Layer 2"><g id="Layer_1-2" data-name="Layer 1"><circle class="cls-1" cx="14.55" cy="14.55" r="13.85"/><circle class="cls-2" cx="14.55" cy="14.7" r="11.54"/><path class="cls-3" d="M17.64,18.73l-1.42-1.4a2.36,2.36,0,0,1-1.88.6,2.29,2.29,0,0,1-1.69-1l-1.43.8a4.23,4.23,0,0,1,.13.46,1.54,1.54,0,0,1-.51,1.46A1.49,1.49,0,0,1,9.27,20a1.5,1.5,0,0,1-1.06-1.24,1.54,1.54,0,0,1,1-1.75,1.59,1.59,0,0,1,1.5.17.08.08,0,0,0,.1,0l1.5-.84a.07.07,0,0,0,0-.1,2.31,2.31,0,0,1,1-2.6.1.1,0,0,0,0-.07c0-.66,0-1.32,0-2l-.25-.06a1.79,1.79,0,0,1-.2-3.34,1.79,1.79,0,1,1,1.21,3.36s-.06,0-.06.07c0,.54,0,1.09.05,1.63,0,0,0,0,0,.07l.52,0a2.23,2.23,0,0,1,1.74.82c.09.1.05.09.17,0l.37-.19a1.5,1.5,0,0,1-.09-.57A1.31,1.31,0,0,1,19,12.43a1.31,1.31,0,0,1-1.52,2.12.21.21,0,0,0-.25,0l-.38.19s-.05,0,0,.08a2.35,2.35,0,0,1-.16,1.89.06.06,0,0,0,0,.09l1.42,1.39h0A1.81,1.81,0,0,1,19.7,18a1.68,1.68,0,0,1,.92.71,1.76,1.76,0,0,1-.3,2.27,1.76,1.76,0,0,1-2.68-2.23Z"/></g></g></svg>