<svg xmlns="http://www.w3.org/2000/svg" viewBox="0 0 63.5 63.5"><defs><style>.cls-1,.cls-3{fill:#fff;}.cls-1{stroke:#c5d1d8;stroke-miterlimit:10;stroke-width:1.5px;}.cls-2{fill:#49498c;}.cls-3{fill-rule:evenodd;}</style></defs><title>icn_Application</title><g id="Layer_2" data-name="Layer 2"><g id="Layer_3" data-name="Layer 3"><circle class="cls-1" cx="31.75" cy="31.75" r="31"/><circle class="cls-2" cx="31.75" cy="32.1" r="25.83"/><path class="cls-3" d="M30.15,39.5c0-.55,0-1.08,0-1.61a3.68,3.68,0,0,1,.91-2.4c.32-.35.64-.7,1-1,1.1-1,2.23-2,3.32-3a10.49,10.49,0,0,0,1.83-2.13,6.63,6.63,0,0,0,.61-5.91,8.74,8.74,0,0,0-4.93-5.1,11.09,11.09,0,0,0-4-.93,14.75,14.75,0,0,0-4.25.3A9.82,9.82,0,0,0,20,20.14a8.35,8.35,0,0,0-2.61,4.63c-.07.4-.11.81-.16,1.22l5.17.62,0-.1a8.39,8.39,0,0,1,.71-2,5,5,0,0,1,3.13-2.61,6.42,6.42,0,0,1,2.37-.17A4.49,4.49,0,0,1,32,23.39a3.61,3.61,0,0,1-.17,4.66c-.68.7-1.44,1.31-2.18,1.94A25,25,0,0,0,27,32.39a7.33,7.33,0,0,0-1.88,3.93A21,21,0,0,0,25,39.46s0,0,0,0Zm.5,2H25v5.61h5.61ZM41.41,25.16h1.85l0,0a.65.65,0,0,0,0-.1A1.89,1.89,0,0,1,44,23.28c.46-.38.89-.78,1.32-1.19a2.47,2.47,0,0,0,.81-2.43,3.19,3.19,0,0,0-2.37-2.41,5,5,0,0,0-2.26-.12A3.37,3.37,0,0,0,39,18.91a3.14,3.14,0,0,0-.41,1.33l1.89.2c0-.12.07-.23.11-.34a1.84,1.84,0,0,1,1.35-1.37,3.69,3.69,0,0,1,.94,0,1.54,1.54,0,0,1,1.12.57,1.38,1.38,0,0,1-.13,1.82c-.53.43-1,.9-1.53,1.38A3.12,3.12,0,0,0,41.41,25.16Zm0,.78v2h2v-2Z"/></g></g></svg>