<svg xmlns="http://www.w3.org/2000/svg" viewBox="0 0 28.63 28.63"><defs><style>.cls-1,.cls-4{fill:#fff;}.cls-1{stroke:#a9b0b5;stroke-miterlimit:10;stroke-width:0.92px;}.cls-2{fill:#a9b0b5;}.cls-3{fill:#29b473;}.cls-3,.cls-4{fill-rule:evenodd;}</style></defs><title>Concept Map</title><g id="Layer_2" data-name="Layer 2"><g id="Layer_1-2" data-name="Layer 1"><circle class="cls-1" cx="14.32" cy="14.32" r="13.85"/><circle class="cls-2" cx="14.32" cy="14.47" r="11.54"/><path class="cls-3" d="M15.12,15.09l.16,0a6.07,6.07,0,0,0,1.13-.25,2.83,2.83,0,0,0,1.41-1,3.51,3.51,0,0,0,.52-1.19s0-.09.08-.1A2,2,0,0,0,20,10.27a1.93,1.93,0,1,0-3.73.95,1.9,1.9,0,0,0,.94,1.06s.07,0,.05.09a2.36,2.36,0,0,1-.64,1,2.45,2.45,0,0,1-1.35.61l-.38.06Zm-3.94,1.39a2.06,2.06,0,0,1,.44-.61A2.37,2.37,0,0,1,13,15.25l.4-.06-.16-1h-.08l-.64.12a3.31,3.31,0,0,0-1.38.55,2.86,2.86,0,0,0-1.06,1.52.14.14,0,0,1-.11.11,1.76,1.76,0,0,0-.87.53,2,2,0,0,0-.5,1.45,1.93,1.93,0,0,0,2.1,1.79,1.93,1.93,0,0,0,.92-3.51C11.47,16.64,11.32,16.57,11.18,16.48Zm.27-2.22v-2l.06,0a1.76,1.76,0,0,0,1.25-2,1.73,1.73,0,0,0-2.42-1.32,1.74,1.74,0,0,0,0,3.18.15.15,0,0,1,.1.16c0,.63,0,1.25,0,1.88v.1ZM17,15v.1c0,.48,0,1,0,1.43a.09.09,0,0,1-.07.09,2.12,2.12,0,0,0-.37.17,1.7,1.7,0,0,0-.79,1.7,1.75,1.75,0,0,0,1.9,1.52,1.83,1.83,0,0,0,1.56-1.55,1.78,1.78,0,0,0-1.12-1.82.09.09,0,0,1-.08-.11c0-.48,0-1,0-1.45,0,0,0-.06,0-.09Z"/><path class="cls-4" d="M15.12,15.09l-.18-1,.38-.06a2.45,2.45,0,0,0,1.35-.61,2.36,2.36,0,0,0,.64-1c0-.06,0-.07-.05-.09a1.9,1.9,0,0,1-.94-1.06A1.93,1.93,0,1,1,20,10.27a2,2,0,0,1-1.61,2.21c-.07,0-.07.05-.08.1a3.51,3.51,0,0,1-.52,1.19,2.83,2.83,0,0,1-1.41,1,6.07,6.07,0,0,1-1.13.25Z"/><path class="cls-4" d="M11.19,16.49c.15.09.29.16.43.25A1.94,1.94,0,0,1,12.32,19a1.92,1.92,0,0,1-1.64,1.28,1.94,1.94,0,0,1-2.11-1.82A2,2,0,0,1,9.08,17a1.76,1.76,0,0,1,.88-.54.14.14,0,0,0,.11-.11,2.91,2.91,0,0,1,1.07-1.54,3.29,3.29,0,0,1,1.39-.56l.64-.12h.08l.16,1-.4.06a2.36,2.36,0,0,0-1.37.63A2.09,2.09,0,0,0,11.19,16.49Z"/><path class="cls-4" d="M11.44,14.26h-1v-.1c0-.62,0-1.25,0-1.87a.15.15,0,0,0-.1-.16,1.73,1.73,0,0,1,0-3.16,1.73,1.73,0,0,1,2.42,1.32,1.75,1.75,0,0,1-1.25,1.95l-.06,0Z"/><path class="cls-4" d="M17,15h1.05s0,.06,0,.09c0,.49,0,1,0,1.48a.1.1,0,0,0,.08.11,1.82,1.82,0,0,1,1.15,1.85,1.87,1.87,0,0,1-1.6,1.58,1.79,1.79,0,0,1-1.95-1.55,1.73,1.73,0,0,1,.81-1.73A2.17,2.17,0,0,1,17,16.7a.09.09,0,0,0,.07-.1c0-.49,0-1,0-1.46Z"/></g></g></svg>