<svg xmlns="http://www.w3.org/2000/svg" viewBox="0 0 40 40"><defs><style>.cls-1{fill:#f06;}.cls-2{fill:#fff;}</style></defs><title>icn_Logo symbol</title><g id="Layer_2" data-name="Layer 2"><g id="Layer_3" data-name="Layer 3"><rect class="cls-1" width="40" height="40" rx="6.03" ry="6.03"/><path class="cls-2" d="M22.87,11.42a1.86,1.86,0,0,1,1.85,1.85,1.84,1.84,0,0,1-1.85,1.83A1.82,1.82,0,0,1,21,13.27,1.84,1.84,0,0,1,22.87,11.42Z"/><path class="cls-2" d="M9.51,11.42A1.45,1.45,0,0,1,11,12.92V27.05a1.44,1.44,0,0,1-1.51,1.51A1.44,1.44,0,0,1,8,27.05V12.92A1.43,1.43,0,0,1,9.51,11.42Z"/><path class="cls-2" d="M31.87,18.6l-2.64,8.2a2.31,2.31,0,0,1-2.42,1.78,2.09,2.09,0,0,1-2.22-1.8L22.75,20,20.9,26.93a2,2,0,0,1-2.2,1.66A2.07,2.07,0,0,1,16.53,27l-2.62-8.2c-.42-1.38.3-2.2,1.41-2.2.91,0,1.33.54,1.53,1.51l1.88,7.12,2.05-7a1.92,1.92,0,0,1,2-1.61,2,2,0,0,1,2.05,1.63l2.1,7,2-7.29a1.54,1.54,0,0,1,1.61-1.38C31.6,16.55,32.24,17.32,31.87,18.6Z"/></g></g></svg>