<svg xmlns="http://www.w3.org/2000/svg" viewBox="0 0 63.5 63.5"><defs><style>.cls-1,.cls-3{fill:#fff;}.cls-1{stroke:#c5d1d8;stroke-miterlimit:10;}.cls-1,.cls-4{stroke-width:1.5px;}.cls-2{fill:#49498c;}.cls-4{fill:none;stroke:#fff;stroke-linecap:round;}</style></defs><title>icn_Objective</title><g id="Layer_2" data-name="Layer 2"><g id="Layer_3" data-name="Layer 3"><circle class="cls-1" cx="31.75" cy="31.75" r="31"/><circle class="cls-2" cx="31.75" cy="31.75" r="25.49"/><path class="cls-3" d="M33.82,31.75a2.07,2.07,0,1,1-2.07-2.07,2.07,2.07,0,0,1,2.07,2.07Z"/><path class="cls-4" d="M38,38h5.17"/><path class="cls-4" d="M38,43.12V38"/><path class="cls-4" d="M25.55,38v5.17"/><path class="cls-4" d="M20.38,38h5.17"/><path class="cls-4" d="M17.28,46.22,25.55,38"/><path class="cls-4" d="M38,38l8.27,8.27"/><path class="cls-4" d="M25.55,25.55H20.38"/><path class="cls-4" d="M25.55,20.38v5.17"/><path class="cls-4" d="M38,25.55V20.38"/><path class="cls-4" d="M43.12,25.55H38"/><path class="cls-4" d="M46.22,17.28,38,25.55"/><path class="cls-4" d="M25.55,25.55l-8.27-8.27"/></g></g></svg>