<svg xmlns="http://www.w3.org/2000/svg" viewBox="0 0 116.52 47.57"><defs><style>.cls-1{fill:#2483e2;}</style></defs><title>icn_letsStart</title><g id="Layer_2" data-name="Layer 2"><g id="Layer_1-2" data-name="Layer 1"><path class="cls-1" d="M62,47.57a19,19,0,1,1,19-19A19,19,0,0,1,62,47.57Zm0-34.33A15.38,15.38,0,1,0,77.42,28.62,15.35,15.35,0,0,0,62,13.24Z"/><path class="cls-1" d="M62,40.2A11.59,11.59,0,1,1,73.63,28.62,11.63,11.63,0,0,1,62,40.2Zm0-19.59a8,8,0,1,0,8,8A8,8,0,0,0,62,20.61Z"/><circle class="cls-1" cx="62.05" cy="28.62" r="3.15"/><path class="cls-1" d="M21.82,35.4a3.7,3.7,0,1,0-3.7-3.7A3.76,3.76,0,0,0,21.82,35.4Zm0-5.9a2.2,2.2,0,1,1-2.2,2.2A2.16,2.16,0,0,1,21.82,29.5Z"/><path class="cls-1" d="M1.82,14.1a.76.76,0,0,0,.5.2.76.76,0,0,0,.5-.2.67.67,0,0,0,0-1l-1.6-1.6a.67.67,0,0,0-1,0c-.2.3-.3.8,0,1Z"/><path class="cls-1" d="M6.93,19.2a.72.72,0,0,0,1,0,.67.67,0,0,0,0-1l-1.6-1.6a.67.67,0,0,0-1,0,.67.67,0,0,0,0,1Z"/><path class="cls-1" d="M.72,19.4a.76.76,0,0,0,.5-.2l1.6-1.6a.67.67,0,0,0,0-1,.67.67,0,0,0-1,0L.22,18.2a.67.67,0,0,0,0,1C.32,19.4.52,19.4.72,19.4Z"/><path class="cls-1" d="M5.82,14.3a.76.76,0,0,0,.5-.2l1.6-1.6a.71.71,0,0,0-1-1l-1.6,1.6a.67.67,0,0,0,0,1A1.69,1.69,0,0,0,5.82,14.3Z"/><path class="cls-1" d="M112.82,7.4a3.76,3.76,0,0,0,3.7-3.7,3.7,3.7,0,1,0-7.4,0A3.76,3.76,0,0,0,112.82,7.4Zm0-5.9A2.22,2.22,0,0,1,115,3.7a2.2,2.2,0,1,1-4.4,0A2.16,2.16,0,0,1,112.82,1.5Z"/><path class="cls-1" d="M99.82,21.1a.73.73,0,0,0,1,0,.67.67,0,0,0,0-1l-1.6-1.6a.67.67,0,0,0-1,0c-.2.3-.3.8,0,1Z"/><path class="cls-1" d="M104.93,26.2a.72.72,0,0,0,1,0,.67.67,0,0,0,0-1l-1.6-1.6a.71.71,0,0,0-1,1Z"/><path class="cls-1" d="M98.72,26.4a.76.76,0,0,0,.5-.2l1.6-1.6a.71.71,0,0,0-1-1l-1.6,1.6a.67.67,0,0,0,0,1C98.32,26.4,98.52,26.4,98.72,26.4Z"/><path class="cls-1" d="M103.82,21.3a.76.76,0,0,0,.5-.2l1.6-1.6a.71.71,0,0,0-1-1l-1.6,1.6a.67.67,0,0,0,0,1A1.69,1.69,0,0,0,103.82,21.3Z"/></g></g></svg>