<svg xmlns="http://www.w3.org/2000/svg" viewBox="0 0 24.03 24"><defs><style>.cls-1{fill:#fff;}</style></defs><title>Settings</title><g id="Layer_2" data-name="Layer 2"><g id="Layer_1-2" data-name="Layer 1"><path class="cls-1" d="M23.61,10.16l-3.25-.72A7.4,7.4,0,0,0,19.73,8L21.53,5.1a.5.5,0,0,0-.07-.62L19.53,2.53a.5.5,0,0,0-.62-.07L16.08,4.27a9.48,9.48,0,0,0-1.48-.62L13.87.39A.52.52,0,0,0,13.38,0H10.65a.52.52,0,0,0-.49.39L9.44,3.65a8.62,8.62,0,0,0-1.51.62L5.1,2.47a.5.5,0,0,0-.62.07L2.53,4.47a.5.5,0,0,0-.07.62L4.27,7.92a8.62,8.62,0,0,0-.62,1.51l-3.25.72a.52.52,0,0,0-.39.49v2.73a.52.52,0,0,0,.39.49l3.25.72a8.62,8.62,0,0,0,.62,1.51L2.5,18.9a.5.5,0,0,0,.07.62L4.5,21.47a.5.5,0,0,0,.62.07L8,19.73a8.62,8.62,0,0,0,1.51.62l.72,3.25a.52.52,0,0,0,.49.39h2.73a.52.52,0,0,0,.49-.39l.72-3.25a7.4,7.4,0,0,0,1.48-.62l2.83,1.81a.5.5,0,0,0,.62-.07l1.94-1.94a.5.5,0,0,0,.07-.62l-1.81-2.83a8.31,8.31,0,0,0,.62-1.48l3.25-.72a.52.52,0,0,0,.39-.49V10.62A.52.52,0,0,0,23.61,10.16ZM12,16.64A4.64,4.64,0,1,1,16.64,12,4.63,4.63,0,0,1,12,16.64Z"/></g></g></svg>