<svg xmlns="http://www.w3.org/2000/svg" viewBox="0 0 259.66 203.59"><defs><style>.cls-1{opacity:0.5;}.cls-2{fill:#f4661e;}.cls-3{fill:#f58020;}.cls-17,.cls-4{fill:none;}.cls-16,.cls-17,.cls-4{stroke:#231f20;stroke-linejoin:round;}.cls-4{stroke-width:2.81px;}.cls-5{fill:#f1f2f2;}.cls-6{fill:#f36e21;}.cls-7{fill:#31c0d8;}.cls-8{fill:#1eaabf;}.cls-9{fill:#fff;opacity:0.6;}.cls-10{fill:#ffd248;}.cls-11{fill:#ffb948;}.cls-12{fill:#bcbec0;}.cls-13{fill:#e6e7e8;}.cls-14{fill:#f06;}.cls-15{fill:#e8ecf1;}.cls-16{fill:#00aeef;}.cls-16,.cls-17{stroke-width:2.84px;}</style></defs><title>icn_bg_image_curriculum</title><g id="Layer_2" data-name="Layer 2"><g id="Layer_1-2" data-name="Layer 1"><g class="cls-1"><rect class="cls-2" x="206.52" y="183.33" width="18.75" height="18.75"/><rect class="cls-3" x="163.38" y="183.33" width="43.14" height="18.75"/><rect class="cls-2" x="123.06" y="183.33" width="40.32" height="18.75"/><polyline class="cls-4" points="163.38 183.33 123.06 183.33 123.06 202.08 163.38 202.08"/><polyline class="cls-4" points="206.52 202.08 225.27 202.08 225.27 183.33 206.52 183.33"/><line class="cls-4" x1="206.52" y1="183.33" x2="163.38" y2="183.33"/><line class="cls-4" x1="163.38" y1="202.08" x2="206.52" y2="202.08"/><circle class="cls-5" cx="134.7" cy="192.47" r="4.45"/><rect class="cls-6" x="167.61" y="189.39" width="19.89" height="2.84"/><rect class="cls-6" x="167.61" y="193.93" width="34.66" height="2.84"/><rect class="cls-6" x="189.21" y="189.39" width="13.07" height="2.84"/><rect class="cls-7" x="128.68" y="145.82" width="18.75" height="18.75"/><rect class="cls-8" x="147.44" y="145.82" width="43.14" height="18.75"/><rect class="cls-7" x="190.57" y="145.82" width="40.32" height="18.75"/><polyline class="cls-4" points="190.57 164.57 230.9 164.57 230.9 145.82 190.57 145.82"/><polyline class="cls-4" points="147.44 145.82 128.68 145.82 128.68 164.57 147.44 164.57"/><line class="cls-4" x1="147.44" y1="164.57" x2="190.57" y2="164.57"/><line class="cls-4" x1="190.57" y1="145.82" x2="147.44" y2="145.82"/><circle class="cls-9" cx="219.25" cy="155.43" r="4.45"/><rect class="cls-10" x="142.75" y="164.57" width="102.21" height="18.75"/><rect class="cls-4" x="142.75" y="164.57" width="102.21" height="18.75"/><rect class="cls-11" x="147.73" y="169.5" width="28.41" height="2.84"/><rect class="cls-11" x="147.73" y="175.18" width="19.89" height="2.84"/><rect class="cls-11" x="170.46" y="175.18" width="11.93" height="2.84"/><rect class="cls-9" x="196.59" y="169.5" width="41.48" height="8.52"/><rect class="cls-2" x="45.23" y="145.82" width="18.75" height="18.75"/><rect class="cls-3" x="63.98" y="145.82" width="43.14" height="18.75"/><rect class="cls-2" x="107.12" y="145.82" width="40.32" height="18.75"/><polyline class="cls-4" points="107.12 164.57 147.44 164.57 147.44 145.82 107.12 145.82"/><polyline class="cls-4" points="63.98 145.82 45.23 145.82 45.23 164.57 63.98 164.57"/><line class="cls-4" x1="63.98" y1="164.57" x2="107.12" y2="164.57"/><line class="cls-4" x1="107.12" y1="145.82" x2="63.98" y2="145.82"/><circle class="cls-5" cx="135.8" cy="155.43" r="4.45"/><rect class="cls-6" x="82.95" y="155.87" width="19.89" height="2.84"/><rect class="cls-6" x="68.18" y="150.75" width="34.66" height="2.84"/><rect class="cls-6" x="68.18" y="155.87" width="13.07" height="2.84"/><rect class="cls-7" x="123.06" y="183.33" width="18.75" height="18.75"/><rect class="cls-8" x="79.92" y="183.33" width="43.14" height="18.75"/><rect class="cls-7" x="39.6" y="183.33" width="40.32" height="18.75"/><polyline class="cls-4" points="79.92 183.33 39.6 183.33 39.6 202.08 79.92 202.08"/><polyline class="cls-4" points="123.06 202.08 141.81 202.08 141.81 183.33 123.06 183.33"/><line class="cls-4" x1="123.06" y1="183.33" x2="79.92" y2="183.33"/><line class="cls-4" x1="79.92" y1="202.08" x2="123.06" y2="202.08"/><circle class="cls-9" cx="51.24" cy="192.47" r="4.45"/><rect class="cls-10" x="25.53" y="164.57" width="102.21" height="18.75"/><rect class="cls-4" x="25.53" y="164.57" width="102.21" height="18.75"/><rect class="cls-11" x="94.32" y="175.18" width="28.41" height="2.84"/><rect class="cls-11" x="102.84" y="169.5" width="19.89" height="2.84"/><rect class="cls-11" x="88.07" y="169.5" width="11.93" height="2.84"/><rect class="cls-9" x="32.39" y="169.5" width="41.48" height="8.52"/><g id="_Group_" data-name="&lt;Group&gt;"><rect class="cls-12" x="47.1" y="64.23" width="17.82" height="14.07"/><polygon class="cls-5" points="70.55 71.74 70.55 78.3 64.92 78.3 64.92 64.23 70.55 64.23 70.55 71.74"/><polygon class="cls-13" points="216.83 71.27 199.01 78.3 199.01 71.74 199.01 64.23 216.83 71.27"/><polygon class="cls-10" points="199.01 71.74 199.01 78.3 70.55 78.3 70.55 71.74 198.55 71.74 199.01 71.74"/><polygon class="cls-10" points="199.01 64.23 199.01 71.74 198.55 71.74 70.55 71.74 70.55 64.23 199.01 64.23"/><line class="cls-4" x1="70.54" y1="64.23" x2="199.01" y2="64.23"/><line class="cls-4" x1="199.01" y1="78.3" x2="70.54" y2="78.3"/><polyline class="cls-4" points="70.08 71.74 70.55 71.74 198.55 71.74"/><polyline class="cls-4" points="64.92 78.3 70.55 78.3 70.55 71.74 70.55 64.23 64.92 64.23"/><rect class="cls-4" x="47.1" y="64.23" width="17.82" height="14.07"/><polygon class="cls-4" points="199.01 64.23 216.83 71.27 199.01 78.3 199.01 71.74 199.01 64.23"/></g><rect class="cls-14" x="102.43" y="129.88" width="51.58" height="72.21"/><polygon class="cls-7" points="157.75 116.75 157.75 129.88 154 129.88 102.43 129.88 95.86 129.88 95.86 116.75 99.61 116.75 147.22 116.75 157.75 116.75"/><path class="cls-15" d="M156.11,96.12c1.9,0,3-1.59,3.35-3.45-.55,14.9-12.24,24.08-12.24,24.08H99.61V84.4c0,2.44,2.94,5.16,5.38,5.16h4.44c2.46,0,4.24-2.76,4.24-5.21,0,2.46,2.19,5.21,4.65,5.21h3.79V91a5.65,5.65,0,0,0,5.1,5.11Z"/><path class="cls-15" d="M159.46,92.67c-.38,1.86-1.44,3.45-3.35,3.45H127.22a5.65,5.65,0,0,1-5.1-5.11V86.56c0-2.32,2.36-2.61,4.7-2.64h29.29c2.46,0,3.52.19,3.52,2.64V91A8.23,8.23,0,0,1,159.46,92.67Z"/><path class="cls-15" d="M154,74.55v9.38H139.94V55.46C139.94,53,142.54,52,145,52h4.45c2.46,0,4.56,1,4.56,3.41V74.55Z"/><path class="cls-15" d="M127.22,83.93h-.4V55.46c0-2.46,2.4-3.41,4.86-3.41h4.44c2.46,0,3.83,1,3.83,3.41V83.93Z"/><path class="cls-15" d="M126.81,83.46v.47c-2.33,0-4.7.32-4.7,2.64v3h-3.79c-2.46,0-4.65-2.76-4.65-5.21V55.46c0-2.46,2.19-3.41,4.65-3.41h4.45c2.46,0,4,1,4,3.41v28Z"/><path class="cls-15" d="M99.61,83.93V55.46C99.61,53,102.54,52,105,52h4.44c2.46,0,4.24,1,4.24,3.41V84.34c0,2.46-1.78,5.21-4.24,5.21H105c-2.44,0-5.34-2.72-5.38-5.16v-.47Z"/><path class="cls-4" d="M113.68,84.34c0,2.46-1.78,5.21-4.24,5.21H105c-2.44,0-5.34-2.72-5.38-5.16V55.46C99.61,53,102.54,52,105,52h4.44c2.46,0,4.24,1,4.24,3.41"/><path class="cls-4" d="M126.81,55.46c0-2.46-1.58-3.41-4-3.41h-4.45c-2.46,0-4.65,1-4.65,3.41V84.34c0,2.46,2.19,5.21,4.65,5.21h4.26"/><line class="cls-4" x1="126.81" y1="83.46" x2="126.81" y2="75.96"/><path class="cls-4" d="M126.81,76V55.46c0-2.46,2.4-3.41,4.86-3.41h4.44c2.46,0,3.83,1,3.83,3.41"/><path class="cls-4" d="M139.94,83.46v-28C139.94,53,142.54,52,145,52h4.45c2.46,0,4.56,1,4.56,3.41V84.4"/><path class="cls-4" d="M156.11,83.93c2.46,0,3.52.19,3.52,2.64V91a8.23,8.23,0,0,1-.17,1.66c-.38,1.86-1.44,3.45-3.35,3.45H127.22a5.65,5.65,0,0,1-5.1-5.11V86.56c0-2.32,2.36-2.61,4.7-2.64h29.29Z"/><polyline class="cls-4" points="102.43 129.88 95.86 129.88 95.86 116.75 99.61 116.75"/><polyline class="cls-4" points="147.22 116.75 157.75 116.75 157.75 129.88 154 129.88"/><rect class="cls-4" x="102.43" y="129.88" width="51.58" height="72.21"/><line class="cls-4" x1="113.68" y1="138.08" x2="113.68" y2="143.87"/><line class="cls-4" x1="113.68" y1="148" x2="113.68" y2="153.79"/><path class="cls-4" d="M99.61,84.4v32.35h47.61s11.68-9.18,12.24-24.08"/><line class="cls-16" x1="25" y1="202.17" x2="244.32" y2="202.17"/><rect class="cls-14" x="175" y="104.16" width="25.57" height="25"/><line class="cls-17" x1="190.34" y1="108.42" x2="194.89" y2="108.42"/><line class="cls-17" x1="190.34" y1="116.94" x2="222.16" y2="116.94"/><line class="cls-17" x1="190.34" y1="124.33" x2="238.07" y2="124.33"/><line class="cls-17" x1="198.3" y1="108.42" x2="203.41" y2="108.42"/><line class="cls-17" x1="206.82" y1="108.42" x2="211.93" y2="108.42"/><rect class="cls-7" x="61.36" y="25.18" width="25.57" height="25.57"/><line class="cls-17" x1="72.16" y1="46.49" x2="67.05" y2="46.49"/><line class="cls-17" x1="72.16" y1="37.97" x2="40.34" y2="37.97"/><line class="cls-17" x1="72.16" y1="30.58" x2="23.86" y2="30.58"/><line class="cls-17" x1="63.64" y1="46.49" x2="59.09" y2="46.49"/><line class="cls-17" x1="55.11" y1="46.49" x2="50.57" y2="46.49"/><polyline class="cls-4" points="20.84 101.51 24.01 104.67 31.39 97.29"/><line class="cls-17" x1="36.36" y1="98.19" x2="65.34" y2="98.19"/><line class="cls-17" x1="36.36" y1="104.44" x2="75.57" y2="104.44"/><polyline class="cls-4" points="20.84 122.14 24.01 125.31 31.39 117.92"/><line class="cls-17" x1="36.36" y1="118.65" x2="65.34" y2="118.65"/><line class="cls-17" x1="36.36" y1="125.47" x2="75.57" y2="125.47"/><polyline class="cls-4" points="166.19 23.68 169.36 26.84 176.74 19.46"/><line class="cls-17" x1="181.82" y1="20.35" x2="210.8" y2="20.35"/><line class="cls-17" x1="181.82" y1="26.6" x2="221.02" y2="26.6"/><polyline class="cls-4" points="166.19 44.31 169.36 47.47 176.74 40.09"/><line class="cls-17" x1="181.82" y1="40.81" x2="210.8" y2="40.81"/><line class="cls-17" x1="181.82" y1="47.63" x2="221.02" y2="47.63"/><line class="cls-17" x1="108.24" y1="13.25" x2="108.24" y2="17.8"/><line class="cls-17" x1="108.24" y1="21.77" x2="108.24" y2="27.46"/><line class="cls-17" x1="100" y1="20.35" x2="104.55" y2="20.35"/><line class="cls-17" x1="111.36" y1="20.35" x2="115.91" y2="20.35"/><line class="cls-17" x1="230.97" y1="87.11" x2="230.97" y2="91.66"/><line class="cls-17" x1="230.97" y1="95.64" x2="230.97" y2="101.32"/><line class="cls-17" x1="222.73" y1="94.22" x2="227.84" y2="94.22"/><line class="cls-17" x1="234.09" y1="94.22" x2="238.64" y2="94.22"/><line class="cls-17" x1="7.67" y1="131.43" x2="7.67" y2="135.98"/><line class="cls-17" x1="7.67" y1="139.96" x2="7.67" y2="145.07"/><line class="cls-17" y1="138.54" x2="4.55" y2="138.54"/><line class="cls-17" x1="10.8" y1="138.54" x2="15.91" y2="138.54"/><line class="cls-17" x1="20.74" y1="59.27" x2="20.74" y2="63.82"/><line class="cls-17" x1="20.74" y1="67.8" x2="20.74" y2="72.91"/><line class="cls-17" x1="13.07" y1="66.38" x2="17.61" y2="66.38"/><line class="cls-17" x1="23.86" y1="66.38" x2="28.98" y2="66.38"/><line class="cls-17" x1="251.42" y1="134.27" x2="251.42" y2="138.82"/><line class="cls-17" x1="251.42" y1="142.8" x2="251.42" y2="147.91"/><line class="cls-17" x1="243.75" y1="141.38" x2="248.3" y2="141.38"/><line class="cls-17" x1="254.55" y1="141.38" x2="259.66" y2="141.38"/><line class="cls-17" x1="143.47" y1="26.32" x2="143.47" y2="30.86"/><line class="cls-17" x1="143.47" y1="34.84" x2="143.47" y2="40.52"/><line class="cls-17" x1="135.8" y1="33.42" x2="140.34" y2="33.42"/><line class="cls-17" x1="147.16" y1="33.42" x2="151.71" y2="33.42"/><circle class="cls-10" cx="233.98" cy="61.06" r="3.86"/><circle class="cls-12" cx="115.82" cy="34.81" r="3.86"/><circle class="cls-7" cx="7.98" cy="92.01" r="3.86"/><circle class="cls-14" cx="83" cy="92.01" r="3.86"/><circle class="cls-10" cx="28.61" cy="152.02" r="3.86"/><circle class="cls-7" cx="151.46" cy="3.86" r="3.86"/><circle class="cls-7" cx="255.55" cy="118.27" r="3.86"/><circle class="cls-12" cx="177.71" cy="90.13" r="3.86"/></g></g></g></svg>