<svg xmlns="http://www.w3.org/2000/svg" viewBox="0 0 150.36 28.76"><defs><style>.cls-1{fill:#336;}.cls-2{fill:#f06;}</style></defs><title>lernwise_logo</title><g id="Layer_2" data-name="Layer 2"><g id="Layer_1-2" data-name="Layer 1"><path class="cls-1" d="M24.93,20.12h-11c.47,2.6,2.47,4.16,5.29,4.47,3.43.38,5.32-1.86,6.65-1.86a1.76,1.76,0,0,1,1.9,1.83c0,2.1-4.91,4.42-8.71,4.19-5.78-.34-10-4.39-10-9.83a9.43,9.43,0,0,1,9.6-9.79c5.83,0,9.09,4.24,9.09,8.24A2.54,2.54,0,0,1,24.93,20.12Zm-11-3h9a4.41,4.41,0,0,0-4.47-4C16.15,13.12,14.51,14.75,14,17.12Z"/><path class="cls-1" d="M2.33.2A2.27,2.27,0,0,1,4.74,2.57V26a2.6,2.6,0,0,1-2.37,2.76A2.6,2.6,0,0,1,0,26V2.57A2.26,2.26,0,0,1,2.33.2Z"/><path class="cls-1" d="M44.59,11.68a2.16,2.16,0,0,1-2.33,2.25c-.74,0-1.55-.23-2.64-.23-1.71,0-2.84,1.28-2.84,3.26v9a2.6,2.6,0,0,1-2.37,2.76A2.6,2.6,0,0,1,32,26V11.88a2.6,2.6,0,0,1,2.33-2.76,2.6,2.6,0,0,1,2.41,2.49,5.54,5.54,0,0,1,4.63-2.49C43,9.12,44.59,9.93,44.59,11.68Z"/><path class="cls-1" d="M65.83,17v9a2.6,2.6,0,0,1-2.37,2.76A2.63,2.63,0,0,1,61.05,26V17.67c0-2.53-1.48-4.12-3.77-4.12s-3.77,1.59-3.77,4.12V26a2.4,2.4,0,1,1-4.74,0V11.88A2.6,2.6,0,0,1,51.1,9.12a2.55,2.55,0,0,1,2.37,2.37,6.37,6.37,0,0,1,5.25-2.37C63,9.12,65.83,12.11,65.83,17Z"/><path class="cls-2" d="M98.63,12.69,94.47,25.6c-.58,1.87-1.83,3.15-3.81,3.15a3.59,3.59,0,0,1-3.5-3.19L84.29,14.91,81.38,25.79a3.45,3.45,0,0,1-3.46,3c-1.79,0-2.91-1.2-3.42-2.91l-4.12-12.9c-.66-2.18.12-3.81,1.87-3.81A3,3,0,0,1,75,11.84L78,23l3.23-11a3.32,3.32,0,0,1,3.19-2.87c1.67,0,2.76,1.2,3.23,2.91l3.3,11.08L94,11.64c.31-1.44,1.17-2.52,2.53-2.52C98.21,9.12,99.22,10.67,98.63,12.69Z"/><path class="cls-2" d="M105.47,28.74A2.6,2.6,0,0,1,103.1,26V11.88a2.4,2.4,0,1,1,4.74,0V26A2.6,2.6,0,0,1,105.47,28.74ZM87.81,3.34A3.34,3.34,0,1,1,84.47,0,3.34,3.34,0,0,1,87.81,3.34Z"/><path class="cls-2" d="M119.73,28.74c-4,0-7.58-1.59-7.58-4.08A1.63,1.63,0,0,1,114,23c1.55,0,2.87,1.9,6.18,1.9,1.67,0,2.53-.74,2.53-1.83,0-3.42-10.53-1-10.53-8.24,0-3.19,2.88-5.71,7.7-5.71,3.61,0,7.48,2.35,7.48,4.29a1.67,1.67,0,0,1-1.79,1.71c-1.55,0-3.63-2.12-6.28-2.12-1.55,0-2.45.66-2.45,1.75,0,3.3,10.53,1.24,10.53,8.16C127.35,26.06,124.82,28.74,119.73,28.74Z"/><path class="cls-2" d="M147.56,20.12h-11c.47,2.6,2.47,4.16,5.29,4.47,3.43.38,5.32-1.86,6.65-1.86a1.76,1.76,0,0,1,1.9,1.83c0,2.1-4.91,4.42-8.71,4.19-5.78-.34-10-4.39-10-9.83a9.43,9.43,0,0,1,9.6-9.79c5.83,0,9.09,4.24,9.09,8.24A2.54,2.54,0,0,1,147.56,20.12Zm-11-3h9a4.41,4.41,0,0,0-4.47-4C138.77,13.12,137.14,14.75,136.6,17.12Z"/></g></g></svg>