<svg xmlns="http://www.w3.org/2000/svg" viewBox="0 0 19.09 19.09"><defs><style>.cls-1,.cls-2{fill:#fff;stroke:#a9b0b5;stroke-miterlimit:10;}.cls-1{stroke-width:1.09px;}.cls-2{stroke-width:0.94px;}</style></defs><title>Locked</title><g id="Layer_2" data-name="Layer 2"><g id="Layer_1-2" data-name="Layer 1"><circle class="cls-1" cx="9.55" cy="9.55" r="9"/><path class="cls-2" d="M12.11,8.65V7.11A2.56,2.56,0,1,0,7,7.11V8.65A1.28,1.28,0,0,0,5.7,9.93v3.33A1.28,1.28,0,0,0,7,14.55h5.13a1.28,1.28,0,0,0,1.28-1.28V9.93A1.28,1.28,0,0,0,12.11,8.65ZM7.5,7.11a2.05,2.05,0,1,1,4.1,0V8.65H7.5Zm5.38,6.15a.77.77,0,0,1-.77.77H7a.77.77,0,0,1-.77-.77V9.93A.77.77,0,0,1,7,9.16h5.13a.77.77,0,0,1,.77.77v3.33Z"/></g></g></svg>