<svg xmlns="http://www.w3.org/2000/svg" viewBox="0 0 32 22.78"><defs><style>.cls-1{fill:#fff;}</style></defs><title>Saved Cards</title><g id="Layer_2" data-name="Layer 2"><g id="Layer_1-2" data-name="Layer 1"><path class="cls-1" d="M26.14,0H1.54A1.54,1.54,0,0,0,0,1.54V16.92a1.54,1.54,0,0,0,1.54,1.54H3v-1H1.54A.51.51,0,0,1,1,16.92V6.15H1V4.1H1v-1H1V1.54A.51.51,0,0,1,1.53,1H26.14a.51.51,0,0,1,.51.51V2.67h1V1.54A1.54,1.54,0,0,0,26.14,0Z"/><path class="cls-1" d="M30.46,4.32H5.86A1.54,1.54,0,0,0,4.32,5.86V21.24a1.54,1.54,0,0,0,1.54,1.54h24.6A1.54,1.54,0,0,0,32,21.24h0V5.86a1.54,1.54,0,0,0-1.54-1.54ZM5.34,8.42H31v2.05H5.34ZM31,21.24a.51.51,0,0,1-.51.51H5.86a.51.51,0,0,1-.51-.51V11.5H31ZM5.34,7.4V5.86a.51.51,0,0,1,.51-.51h24.6a.51.51,0,0,1,.51.51h0V7.4Z"/><rect class="cls-1" x="7.4" y="18.68" width="10.25" height="1.03"/><rect class="cls-1" x="7.4" y="15.6" width="6.16" height="1.03"/><path class="cls-1" d="M25.84,19.71h2.11a1,1,0,0,0,1-1h0v-.06a1,1,0,0,0-1-1H25.84a1,1,0,0,0-1,1v.06A1,1,0,0,0,25.84,19.71Z"/></g></g></svg>