<?xml version="1.0" encoding="utf-8"?>
<!-- Generator: Adobe Illustrator 21.0.0, SVG Export Plug-In . SVG Version: 6.00 Build 0)  -->
<svg version="1.1" id="Layer_1" xmlns="http://www.w3.org/2000/svg" xmlns:xlink="http://www.w3.org/1999/xlink" x="0px" y="0px"
	 viewBox="0 0 196 57" style="enable-background:new 0 0 196 57;" xml:space="preserve">
<style type="text/css">
	.st0{fill:#FFFFFF;stroke:#E1E1E1;stroke-miterlimit:10;}
	.st1{enable-background:new    ;}
	.st2{fill:#FFFFFF;}
</style>
<g>
	<g>
		<g>
			<g>
				<path class="st0" d="M41.2,41.4H15.4V15.6h25.8V41.4z M19,37.8h18.7V19.2H19V37.8z"/>
			</g>
		</g>
		<g>
			<path class="st0" d="M28.3,54.1L2.7,28.5L28.3,2.9l25.6,25.6L28.3,54.1z M7.8,28.5L28.3,49l20.5-20.5L28.3,8L7.8,28.5z"/>
		</g>
		<g>
			<g>
				<path class="st0" d="M28.3,56.3C13,56.3,0.5,43.8,0.5,28.5C0.5,13.2,13,0.7,28.3,0.7c15.3,0,27.8,12.5,27.8,27.8
					C56.1,43.8,43.6,56.3,28.3,56.3z M28.3,4.3C15,4.3,4.1,15.2,4.1,28.5c0,13.3,10.9,24.2,24.2,24.2c13.3,0,24.2-10.9,24.2-24.2
					C52.5,15.2,41.7,4.3,28.3,4.3z"/>
			</g>
		</g>
	</g>
	<g class="st1">
		<path class="st2" d="M82.4,21.2c1.1,0.3,1.7,0.8,1.7,1.5c0,0.4-0.2,1-0.5,1.7c-0.3,0.7-0.7,1-1,1c-0.1,0-0.4-0.1-1-0.4
			c-0.6-0.2-1.2-0.4-2-0.4c-1.2,0-1.8,0.4-1.8,1.2c0,0.5,0.2,0.9,0.6,1.2c0.4,0.3,1.1,0.6,2,1c0.6,0.2,1,0.4,1.3,0.6
			c0.9,0.4,1.6,1,2.2,1.8c0.5,0.7,0.8,1.7,0.8,3c0,1.8-0.6,3.2-1.8,4.3c-1.2,1.1-2.8,1.6-5,1.6c-1.4,0-2.7-0.2-3.9-0.7
			c-1.2-0.4-1.8-1-1.8-1.7c0-0.5,0.2-1,0.7-1.7c0.4-0.7,0.8-1,1.2-1c0.2,0,0.4,0.1,0.8,0.3c0.5,0.2,0.9,0.4,1.3,0.5
			c0.4,0.1,0.9,0.2,1.4,0.2c0.6,0,1.1-0.1,1.5-0.4c0.3-0.3,0.5-0.6,0.5-1.1c0-0.5-0.2-0.9-0.6-1.2s-0.8-0.5-1.3-0.7
			c-0.5-0.2-0.9-0.3-1.1-0.4c-1.2-0.5-2.1-1.1-2.8-1.8c-0.7-0.7-1.1-1.9-1.1-3.4c0-1.8,0.6-3.1,1.7-4.1c1.1-1,2.6-1.5,4.6-1.5
			C80.1,20.7,81.3,20.9,82.4,21.2z"/>
		<path class="st2" d="M99.6,21.3c1.2,0.4,1.8,1,1.8,1.7c0,0.3-0.2,0.9-0.7,1.6c-0.5,0.7-0.8,1.1-1.1,1.1c-0.1,0-0.3-0.1-0.6-0.2
			c-0.5-0.2-0.9-0.4-1.4-0.5s-1-0.2-1.6-0.2c-1.4,0-2.3,0.4-3,1.3c-0.6,0.8-0.9,2.2-0.9,4s0.3,3.1,0.9,4s1.5,1.3,2.8,1.3
			c1.1,0,2.2-0.3,3.4-0.8c0.4-0.1,0.6-0.2,0.6-0.2c0.2,0,0.5,0.2,0.8,0.5c0.3,0.3,0.5,0.7,0.7,1.1c0.2,0.4,0.3,0.8,0.3,1
			c0,0.6-0.4,1-1.2,1.4c-0.8,0.4-1.6,0.6-2.6,0.8c-1,0.1-1.7,0.2-2.3,0.2c-2.9,0-5.1-0.8-6.5-2.3c-1.4-1.5-2.1-3.8-2.1-6.9
			c0-3.1,0.7-5.5,2.2-7c1.4-1.6,3.7-2.4,6.7-2.4C97.1,20.7,98.4,20.9,99.6,21.3z"/>
		<path class="st2" d="M117.5,23.2c1.2,1.7,1.8,3.8,1.8,6.4c0,0.3-0.2,0.7-0.7,1.2c-0.5,0.5-0.8,0.8-1,0.8h-8.8
			c0.1,1.3,0.5,2.2,1.2,2.8c0.7,0.6,1.6,0.8,2.8,0.8c0.6,0,1.2-0.1,1.8-0.2c0.5-0.1,1.1-0.3,1.7-0.6c0.4-0.2,0.6-0.3,0.8-0.3
			c0.2,0,0.5,0.2,0.8,0.5c0.3,0.3,0.5,0.7,0.7,1.1c0.2,0.4,0.3,0.8,0.3,1c0,0.5-0.4,1-1.1,1.4c-0.7,0.4-1.6,0.7-2.5,0.8
			c-1,0.2-1.8,0.3-2.6,0.3c-3,0-5.3-0.8-6.8-2.4s-2.2-3.9-2.2-6.7c0-3.2,0.7-5.6,2.2-7.1c1.5-1.5,3.5-2.3,6.1-2.3
			C114.4,20.7,116.3,21.5,117.5,23.2z M108.8,28.2h5.6c0-1.1-0.2-1.9-0.6-2.5c-0.4-0.6-1-0.9-1.9-0.9
			C110.2,24.7,109.1,25.9,108.8,28.2z"/>
		<path class="st2" d="M136.5,22.1c0.8,0.9,1.2,2.3,1.2,4.2v11.7c0,0.7-0.7,1.1-2.1,1.1h-1c-1.4,0-2.1-0.4-2.1-1.1V27
			c0-0.7-0.2-1.2-0.5-1.6s-0.8-0.5-1.6-0.5c-0.6,0-1.2,0.2-1.6,0.6c-0.5,0.4-0.8,0.9-1.1,1.4v11c0,0.7-0.7,1.1-2.1,1.1h-1
			c-1.4,0-2.1-0.4-2.1-1.1V27c0-1,0-1.8-0.1-2.3s-0.1-1.1-0.2-1.8c-0.1-0.3-0.1-0.6-0.1-0.7c0-0.4,0.5-0.6,1.4-0.8
			c0.9-0.2,1.7-0.3,2.5-0.3c0.4,0,0.7,0.2,0.9,0.5c0.2,0.3,0.3,0.6,0.4,1s0.1,0.6,0.2,0.8c0.6-0.7,1.3-1.4,2.2-1.9
			c0.9-0.5,1.9-0.8,2.9-0.8C134.4,20.7,135.7,21.1,136.5,22.1z"/>
		<path class="st2" d="M147.5,17.7V21h1.7c0.4,0,0.6,0.1,0.8,0.4c0.2,0.3,0.2,0.7,0.2,1.3v0.6c0,0.6-0.1,1-0.2,1.3s-0.4,0.4-0.8,0.4
			h-1.7v8.7c0,0.5,0.1,0.9,0.3,1.1c0.2,0.2,0.5,0.3,0.9,0.3c0.1,0,0.3,0,0.5-0.1c0.2,0,0.3-0.1,0.5-0.1c0.2,0,0.4,0.2,0.6,0.5
			c0.2,0.3,0.3,0.7,0.4,1.1s0.1,0.7,0.1,0.8c0,1.1-1.1,1.7-3.3,1.7c-3.3,0-5-1.9-5-5.6V25h-0.6c-0.4,0-0.6-0.1-0.8-0.4
			c-0.2-0.3-0.2-0.7-0.2-1.3v-0.6c0-0.6,0.1-1,0.2-1.3c0.2-0.3,0.4-0.4,0.8-0.4h0.6l0.4-3.3c0.1-0.7,0.7-1.1,1.9-1.1h1.1
			C146.9,16.6,147.5,17,147.5,17.7z"/>
		<path class="st2" d="M163.8,21.3c0.3,0.4,0.4,0.8,0.4,1.3c0,0.5-0.1,1.1-0.3,1.8c-0.2,0.7-0.5,1.1-0.8,1.1c-0.1,0-0.4,0-0.7-0.1
			c-0.3-0.1-0.6-0.1-0.9-0.1c-0.6,0-1.2,0.2-1.6,0.5c-0.5,0.4-0.8,0.8-1.1,1.2v11c0,0.7-0.7,1.1-2.1,1.1h-1c-1.4,0-2.1-0.4-2.1-1.1
			V27c0-1,0-1.8-0.1-2.3c-0.1-0.5-0.1-1.1-0.2-1.8c-0.1-0.3-0.1-0.6-0.1-0.7c0-0.4,0.5-0.6,1.4-0.8c0.9-0.2,1.7-0.3,2.5-0.3
			c0.4,0,0.7,0.2,0.9,0.5c0.2,0.3,0.3,0.6,0.4,1c0.1,0.4,0.1,0.6,0.2,0.8c0.4-0.8,0.9-1.4,1.5-1.9c0.6-0.5,1.3-0.7,2.2-0.7
			C163,20.7,163.5,20.9,163.8,21.3z"/>
		<path class="st2" d="M171.3,14.1v2.8c0,0.7-0.7,1.1-2.1,1.1h-1c-1.4,0-2.1-0.4-2.1-1.1v-2.8c0-0.7,0.7-1.1,2.1-1.1h1
			C170.6,13,171.3,13.4,171.3,14.1z M171.3,22v15.9c0,0.7-0.7,1.1-2.1,1.1h-1c-1.4,0-2.1-0.4-2.1-1.1V22c0-0.7,0.7-1.1,2.1-1.1h1
			C170.6,20.9,171.3,21.3,171.3,22z"/>
		<path class="st2" d="M187.5,21.3c1.2,0.4,1.8,1,1.8,1.7c0,0.3-0.2,0.9-0.7,1.6c-0.5,0.7-0.8,1.1-1.1,1.1c-0.1,0-0.3-0.1-0.6-0.2
			c-0.5-0.2-0.9-0.4-1.4-0.5s-1-0.2-1.6-0.2c-1.4,0-2.3,0.4-3,1.3c-0.6,0.8-0.9,2.2-0.9,4s0.3,3.1,0.9,4s1.5,1.3,2.8,1.3
			c1.1,0,2.2-0.3,3.4-0.8c0.4-0.1,0.6-0.2,0.6-0.2c0.2,0,0.5,0.2,0.8,0.5c0.3,0.3,0.5,0.7,0.7,1.1c0.2,0.4,0.3,0.8,0.3,1
			c0,0.6-0.4,1-1.2,1.4c-0.8,0.4-1.6,0.6-2.6,0.8c-1,0.1-1.7,0.2-2.3,0.2c-2.9,0-5.1-0.8-6.5-2.3c-1.4-1.5-2.1-3.8-2.1-6.9
			c0-3.1,0.7-5.5,2.2-7c1.4-1.6,3.7-2.4,6.7-2.4C184.9,20.7,186.2,20.9,187.5,21.3z"/>
	</g>
</g>
</svg>
