<?xml version="1.0" encoding="utf-8"?>
<!-- Generator: Adobe Illustrator 16.0.0, SVG Export Plug-In . SVG Version: 6.00 Build 0)  -->
<!DOCTYPE svg PUBLIC "-//W3C//DTD SVG 1.1//EN" "http://www.w3.org/Graphics/SVG/1.1/DTD/svg11.dtd">
<svg version="1.1" id="Layer_1" xmlns="http://www.w3.org/2000/svg" xmlns:xlink="http://www.w3.org/1999/xlink" x="0px" y="0px"
	 width="196px" height="57px" viewBox="0 0 196 57" enable-background="new 0 0 196 57" xml:space="preserve">
<g>
	<g>
		<g>
			<g>
				<path fill="#FFFFFF" stroke="#E1E1E1" stroke-miterlimit="10" d="M41.214,41.404H15.405V15.593h25.809V41.404z M18.969,37.84
					h18.681V19.158H18.969V37.84z"/>
			</g>
		</g>
		<g>
			<path fill="#FFFFFF" stroke="#E1E1E1" stroke-miterlimit="10" d="M28.313,54.076L2.735,28.499L28.313,2.922l25.576,25.577
				L28.313,54.076z M7.774,28.499l20.538,20.537l20.538-20.537L28.313,7.962L7.774,28.499z"/>
		</g>
		<g>
			<g>
				<path fill="#FFFFFF" stroke="#E1E1E1" stroke-miterlimit="10" d="M28.313,56.265c-15.311,0-27.765-12.455-27.765-27.766
					c0-15.31,12.454-27.764,27.765-27.764c15.309,0,27.763,12.454,27.763,27.764C56.075,43.81,43.621,56.265,28.313,56.265z
					 M28.313,4.299c-13.345,0-24.201,10.855-24.201,24.2c0,13.343,10.856,24.2,24.201,24.2c13.342,0,24.198-10.857,24.198-24.2
					C52.511,15.154,41.654,4.299,28.313,4.299z"/>
			</g>
		</g>
	</g>
	<text transform="matrix(1 0 0 1 71.1729 38.9619)" fill="#FFFFFF" font-family="'Asap-Bold'" font-size="34.4079">scentric</text>
</g>
</svg>
