<svg xmlns="http://www.w3.org/2000/svg" viewBox="0 0 401.38 214.06"><defs><style>.cls-1{fill:#466997;}.cls-2{fill:#24b4ac;}.cls-3{fill:#9a97ca;}.cls-4{fill:#f3899c;}</style></defs><title>Thank you</title><g id="Layer_2" data-name="Layer 2"><g id="Layer_1-2" data-name="Layer 1"><path class="cls-1" d="M22.17,115H14.86v-7.32A1.83,1.83,0,0,0,13,105.85H11a1.83,1.83,0,0,0-1.83,1.83V115H1.83A1.83,1.83,0,0,0,0,116.84v2.06a1.83,1.83,0,0,0,1.83,1.83H9.14v7.32A1.83,1.83,0,0,0,11,129.88H13a1.83,1.83,0,0,0,1.83-1.83v-7.32h7.31A1.83,1.83,0,0,0,24,118.9v-2.06A1.83,1.83,0,0,0,22.17,115Z"/><path class="cls-2" d="M389,119.9a12.4,12.4,0,1,0,12.38,12.4A12.39,12.39,0,0,0,389,119.9Zm0,20.56a8.16,8.16,0,1,1,8.15-8.16A8.15,8.15,0,0,1,389,140.46Z"/><ellipse class="cls-3" cx="75.48" cy="85.45" rx="11.03" ry="11.05"/><path class="cls-2" d="M56.58,176.35A12.4,12.4,0,1,0,69,188.75,12.39,12.39,0,0,0,56.58,176.35Zm0,20.56a8.16,8.16,0,1,1,8.15-8.16A8.15,8.15,0,0,1,56.58,196.91Z"/><polygon class="cls-4" points="367.92 194.66 371.06 201.05 378.1 202.07 373.01 207.04 374.21 214.06 367.92 210.75 361.62 214.06 362.82 207.04 357.73 202.07 364.77 201.05 367.92 194.66"/><ellipse class="cls-3" cx="346.7" cy="84" rx="11.03" ry="11.05"/><path class="cls-1" d="M303.38,31.84h-7.31V24.52a1.83,1.83,0,0,0-1.83-1.83h-2.06a1.83,1.83,0,0,0-1.83,1.83v7.32H283a1.83,1.83,0,0,0-1.83,1.83v2.06A1.83,1.83,0,0,0,283,37.56h7.31v7.32a1.83,1.83,0,0,0,1.83,1.83h2.06a1.83,1.83,0,0,0,1.83-1.83V37.56h7.31a1.83,1.83,0,0,0,1.83-1.83V33.67A1.83,1.83,0,0,0,303.38,31.84Z"/><polygon class="cls-4" points="126.4 29.3 129.54 35.68 136.58 36.7 131.49 41.67 132.69 48.69 126.4 45.38 120.1 48.69 121.31 41.67 116.21 36.7 123.25 35.68 126.4 29.3"/><path class="cls-1" d="M280,71.34h-7.31V64a1.83,1.83,0,0,0-1.83-1.83H268.8A1.83,1.83,0,0,0,267,64v7.32h-7.31a1.83,1.83,0,0,0-1.83,1.83v2.06a1.83,1.83,0,0,0,1.83,1.83H267v7.32a1.83,1.83,0,0,0,1.83,1.83h2.06a1.83,1.83,0,0,0,1.83-1.83V77.07H280a1.83,1.83,0,0,0,1.83-1.83V73.18A1.83,1.83,0,0,0,280,71.34Z"/><ellipse class="cls-3" cx="210.24" cy="11.05" rx="11.03" ry="11.05"/></g></g></svg>